<?xml version="1.0" encoding="UTF-8" standalone="no"?>
<!DOCTYPE svg PUBLIC "-//W3C//DTD SVG 1.1//EN" "http://www.w3.org/Graphics/SVG/1.1/DTD/svg11.dtd">
<svg width="100%" height="100%" viewBox="0 0 154 52" version="1.1" xmlns="http://www.w3.org/2000/svg" xmlns:xlink="http://www.w3.org/1999/xlink" xml:space="preserve" xmlns:serif="http://www.serif.com/" style="fill-rule:evenodd;clip-rule:evenodd;stroke-linejoin:round;stroke-miterlimit:2;">
    <path d="M153.762,37.694C153.762,45.151 147.652,51.262 140.194,51.262L13.568,51.262C6.11,51.262 0,45.151 0,37.694L0,13.568C0,6.11 6.11,0 13.568,0L140.194,0C147.652,0 153.762,6.11 153.762,13.568L153.762,37.694ZM152.762,37.694L152.762,13.568C152.762,6.66 147.102,1 140.194,1L13.568,1C6.66,1 1,6.66 1,13.568L1,37.694C1,44.602 6.66,50.262 13.568,50.262L140.194,50.262C147.102,50.262 152.762,44.602 152.762,37.694Z" style="fill:white;"/>
    <path d="M58.525,18.85L57.875,17.25L54.855,17.25L54.205,18.85L53.405,18.85L56.075,12.35L56.655,12.35L59.325,18.85L58.525,18.85ZM55.135,16.55L57.585,16.55L56.355,13.52L55.135,16.55ZM60.973,18.85L59.163,14.25L59.913,14.25L61.333,17.86L62.763,14.25L63.513,14.25L61.683,18.85L60.973,18.85ZM67.983,14.25L68.713,14.25L68.713,18.85L67.983,18.85L67.983,18.02C67.633,18.57 67.053,18.93 66.273,18.93C64.963,18.93 64.033,17.92 64.033,16.55C64.033,15.17 64.963,14.18 66.273,14.18C67.053,14.18 67.633,14.53 67.983,15.08L67.983,14.25ZM66.363,18.24C67.353,18.24 67.983,17.53 67.983,16.55C67.983,15.57 67.353,14.87 66.363,14.87C65.383,14.87 64.733,15.57 64.733,16.55C64.733,17.53 65.383,18.24 66.363,18.24ZM70.404,13.27C70.184,13.27 69.964,13.09 69.964,12.82C69.964,12.55 70.184,12.39 70.404,12.39C70.624,12.39 70.844,12.55 70.844,12.82C70.844,13.09 70.624,13.27 70.404,13.27ZM70.764,18.85L70.044,18.85L70.044,14.25L70.774,14.25L70.764,18.85ZM72.823,18.85L72.103,18.85L72.103,12.35L72.823,12.35L72.823,18.85ZM77.895,14.25L78.625,14.25L78.625,18.85L77.895,18.85L77.895,18.02C77.545,18.57 76.965,18.93 76.185,18.93C74.875,18.93 73.945,17.92 73.945,16.55C73.945,15.17 74.875,14.18 76.185,14.18C76.965,14.18 77.545,14.53 77.895,15.08L77.895,14.25ZM76.275,18.24C77.265,18.24 77.895,17.53 77.895,16.55C77.895,15.57 77.265,14.87 76.275,14.87C75.295,14.87 74.645,15.57 74.645,16.55C74.645,17.53 75.295,18.24 76.275,18.24ZM82.306,14.18C83.616,14.18 84.556,15.17 84.556,16.55C84.556,17.92 83.616,18.93 82.306,18.93C81.526,18.93 80.946,18.57 80.596,18.02L80.596,18.85L79.876,18.85L79.876,12.35L80.596,12.35L80.596,15.08C80.946,14.53 81.526,14.18 82.306,14.18ZM82.216,18.24C83.196,18.24 83.846,17.53 83.846,16.55C83.846,15.57 83.196,14.87 82.216,14.87C81.236,14.87 80.596,15.57 80.596,16.55C80.596,17.53 81.236,18.24 82.216,18.24ZM86.388,18.85L85.668,18.85L85.668,12.35L86.388,12.35L86.388,18.85ZM89.78,14.17C91.1,14.17 91.98,15.18 91.98,16.55L91.98,16.78L88.21,16.78C88.3,17.7 88.93,18.31 89.84,18.31C90.52,18.31 90.99,18 91.25,17.61L91.76,17.98C91.36,18.57 90.68,18.94 89.84,18.94C88.44,18.94 87.51,17.92 87.51,16.55C87.51,15.18 88.4,14.17 89.78,14.17ZM89.78,14.77C88.88,14.77 88.31,15.38 88.21,16.28L91.31,16.28C91.21,15.41 90.64,14.77 89.78,14.77ZM97.301,18.94C95.921,18.94 94.961,17.92 94.961,16.55C94.961,15.17 95.921,14.17 97.301,14.17C98.681,14.17 99.641,15.17 99.641,16.55C99.641,17.92 98.681,18.94 97.301,18.94ZM97.301,18.24C98.271,18.24 98.911,17.52 98.911,16.55C98.911,15.58 98.271,14.87 97.301,14.87C96.331,14.87 95.681,15.58 95.681,16.55C95.681,17.52 96.331,18.24 97.301,18.24ZM102.955,14.18C103.875,14.18 104.785,14.72 104.785,16.02L104.785,18.85L104.065,18.85L104.065,16.12C104.065,15.24 103.445,14.81 102.765,14.81C102.075,14.81 101.475,15.24 101.475,16.12L101.475,18.85L100.755,18.85L100.755,14.25L101.475,14.25L101.475,14.87C101.825,14.39 102.385,14.18 102.955,14.18ZM110.22,14.82L109.12,14.82L109.12,17.65C109.12,18.14 109.42,18.26 109.76,18.26L110.17,18.26L110.17,18.85L109.5,18.85C108.8,18.85 108.39,18.45 108.39,17.75L108.39,14.82L107.75,14.82L107.75,14.25L108.39,14.25L108.39,12.85L109.12,12.85L109.12,14.25L110.22,14.25L110.22,14.82ZM113.414,14.18C114.334,14.18 115.244,14.72 115.244,16.02L115.244,18.85L114.524,18.85L114.524,16.12C114.524,15.24 113.904,14.81 113.224,14.81C112.534,14.81 111.934,15.24 111.934,16.12L111.934,18.85L111.214,18.85L111.214,12.35L111.934,12.35L111.934,14.87C112.284,14.39 112.844,14.18 113.414,14.18ZM118.637,14.17C119.957,14.17 120.837,15.18 120.837,16.55L120.837,16.78L117.067,16.78C117.157,17.7 117.787,18.31 118.697,18.31C119.377,18.31 119.847,18 120.107,17.61L120.617,17.98C120.217,18.57 119.537,18.94 118.697,18.94C117.297,18.94 116.367,17.92 116.367,16.55C116.367,15.18 117.257,14.17 118.637,14.17ZM118.637,14.77C117.737,14.77 117.167,15.38 117.067,16.28L120.167,16.28C120.067,15.41 119.497,14.77 118.637,14.77Z" style="fill:white;fill-rule:nonzero;"/>
    <path d="M60.472,40.001L59.302,37.121L53.866,37.121L52.696,40.001L51.256,40.001L56.062,28.301L57.106,28.301L61.912,40.001L60.472,40.001ZM54.37,35.861L58.78,35.861L56.566,30.407L54.37,35.861ZM67.842,31.595C70.2,31.595 71.892,33.413 71.892,35.879C71.892,38.363 70.2,40.145 67.842,40.145C66.438,40.145 65.394,39.515 64.764,38.507L64.764,43.313L63.468,43.313L63.468,31.721L64.764,31.721L64.764,33.233C65.394,32.225 66.438,31.595 67.842,31.595ZM67.68,38.903C69.444,38.903 70.614,37.643 70.614,35.879C70.614,34.115 69.444,32.837 67.68,32.837C65.916,32.837 64.764,34.115 64.764,35.879C64.764,37.643 65.916,38.903 67.68,38.903ZM78.266,31.595C80.624,31.595 82.316,33.413 82.316,35.879C82.316,38.363 80.624,40.145 78.266,40.145C76.862,40.145 75.818,39.515 75.188,38.507L75.188,43.313L73.891,43.313L73.891,31.721L75.188,31.721L75.188,33.233C75.818,32.225 76.862,31.595 78.266,31.595ZM78.104,38.903C79.868,38.903 81.037,37.643 81.037,35.879C81.037,34.115 79.868,32.837 78.104,32.837C76.34,32.837 75.188,34.115 75.188,35.879C75.188,37.643 76.34,38.903 78.104,38.903ZM87.559,37.499L88.675,36.761C89.089,37.859 90.529,38.849 92.473,38.849C94.489,38.849 95.335,38.093 95.335,36.743C95.335,35.213 93.049,34.853 91.987,34.547C90.853,34.241 87.973,33.755 87.973,31.343C87.973,29.147 89.845,28.103 92.347,28.103C94.507,28.103 96.235,29.147 96.667,30.425L95.551,31.091C95.227,30.227 93.895,29.453 92.203,29.453C90.457,29.453 89.503,30.137 89.503,31.289C89.503,32.729 91.591,33.035 92.743,33.341C93.787,33.647 96.829,34.259 96.829,36.689C96.829,38.993 95.155,40.199 92.347,40.199C89.827,40.199 88.117,39.029 87.559,37.499ZM102.635,32.747L100.655,32.747L100.655,37.841C100.655,38.723 101.195,38.939 101.807,38.939L102.545,38.939L102.545,40.001L101.339,40.001C100.079,40.001 99.341,39.281 99.341,38.021L99.341,32.747L98.189,32.747L98.189,31.721L99.341,31.721L99.341,29.201L100.655,29.201L100.655,31.721L102.635,31.721L102.635,32.747ZM107.963,40.163C105.479,40.163 103.751,38.327 103.751,35.861C103.751,33.377 105.479,31.577 107.963,31.577C110.447,31.577 112.175,33.377 112.175,35.861C112.175,38.327 110.447,40.163 107.963,40.163ZM107.963,38.903C109.709,38.903 110.861,37.607 110.861,35.861C110.861,34.115 109.709,32.837 107.963,32.837C106.217,32.837 105.047,34.115 105.047,35.861C105.047,37.607 106.217,38.903 107.963,38.903ZM115.477,33.251C116.107,32.117 117.223,31.613 118.393,31.595L118.393,32.837C117.115,32.855 115.477,33.521 115.477,35.537L115.477,40.001L114.181,40.001L114.181,31.721L115.477,31.721L115.477,33.251ZM123.323,31.577C125.699,31.577 127.283,33.395 127.283,35.861L127.283,36.275L120.497,36.275C120.659,37.931 121.793,39.029 123.431,39.029C124.655,39.029 125.501,38.471 125.969,37.769L126.887,38.435C126.167,39.497 124.943,40.163 123.431,40.163C120.911,40.163 119.237,38.327 119.237,35.861C119.237,33.395 120.839,31.577 123.323,31.577ZM123.323,32.657C121.703,32.657 120.677,33.755 120.497,35.375L126.077,35.375C125.897,33.809 124.871,32.657 123.323,32.657Z" style="fill:white;fill-rule:nonzero;"/>
    <path d="M26.933,10.738C28.214,10.738 29.292,11.816 29.292,13.096L29.292,40.007C29.292,41.31 28.236,42.366 26.933,42.366L11.029,42.366C9.726,42.366 8.671,41.31 8.671,40.007L8.671,13.096C8.671,11.793 9.726,10.738 11.029,10.738L26.933,10.738ZM22.733,12.152L15.208,12.152C14.916,12.152 14.646,12.399 14.646,12.714C14.646,13.028 14.893,13.275 15.208,13.275L22.733,13.275C23.025,13.275 23.294,13.028 23.294,12.714C23.294,12.422 23.047,12.152 22.733,12.152ZM17.185,39.401C17.185,40.412 17.993,41.22 18.982,41.198C19.992,41.198 20.801,40.389 20.801,39.401C20.801,38.39 19.97,37.581 18.982,37.581C17.993,37.581 17.185,38.412 17.185,39.401ZM28.146,14.534L9.794,14.534L9.794,36.728L28.146,36.728L28.146,14.534Z" style="fill:white;"/>
</svg>
