<?xml version="1.0" encoding="UTF-8" standalone="no"?>
<!DOCTYPE svg PUBLIC "-//W3C//DTD SVG 1.1//EN" "http://www.w3.org/Graphics/SVG/1.1/DTD/svg11.dtd">
<svg width="100%" height="100%" viewBox="0 0 44 44" version="1.1" xmlns="http://www.w3.org/2000/svg" xmlns:xlink="http://www.w3.org/1999/xlink" xml:space="preserve" xmlns:serif="http://www.serif.com/" style="fill-rule:evenodd;clip-rule:evenodd;stroke-linecap:round;">
    <path d="M44,8C44,3.585 40.415,0 36,0L8,0C3.585,0 0,3.585 0,8L0,36C0,40.415 3.585,44 8,44L36,44C40.415,44 44,40.415 44,36L44,8Z" style="fill:rgb(248,249,250);"/>
    <path d="M14.5,15.333L15.005,15.333C15.856,15.333 16.57,15.974 16.662,16.819L17.338,23.014C17.43,23.86 18.144,24.5 18.995,24.5L26.205,24.5C26.967,24.5 27.632,23.983 27.82,23.245L28.97,18.736C29.239,17.682 28.443,16.657 27.355,16.657L17.5,16.657M17.521,27.521L18.146,27.521M17.521,28.146L18.146,28.146M26.687,27.521L27.312,27.521M26.687,28.146L27.312,28.146M18.667,27.833C18.667,28.294 18.294,28.667 17.833,28.667C17.373,28.667 17,28.294 17,27.833C17,27.373 17.373,27 17.833,27C18.294,27 18.667,27.373 18.667,27.833ZM27.833,27.833C27.833,28.294 27.46,28.667 27,28.667C26.54,28.667 26.167,28.294 26.167,27.833C26.167,27.373 26.54,27 27,27C27.46,27 27.833,27.373 27.833,27.833Z" style="fill:none;fill-rule:nonzero;stroke:rgb(128,125,126);stroke-width:1.5px;"/>
</svg>
