<?xml version="1.0" encoding="UTF-8" standalone="no"?>
<!DOCTYPE svg PUBLIC "-//W3C//DTD SVG 1.1//EN" "http://www.w3.org/Graphics/SVG/1.1/DTD/svg11.dtd">
<svg width="100%" height="100%" viewBox="0 0 154 52" version="1.1" xmlns="http://www.w3.org/2000/svg" xmlns:xlink="http://www.w3.org/1999/xlink" xml:space="preserve" xmlns:serif="http://www.serif.com/" style="fill-rule:evenodd;clip-rule:evenodd;stroke-linejoin:round;stroke-miterlimit:2;">
    <g>
        <path d="M153.762,37.671C153.762,45.129 147.652,51.239 140.194,51.239L13.568,51.239C6.11,51.239 0,45.129 0,37.671L0,13.568C0,6.11 6.11,0 13.568,0L140.194,0C147.652,0 153.762,6.11 153.762,13.568L153.762,37.671ZM152.762,37.671L152.762,13.568C152.762,6.66 147.102,1 140.194,1L13.568,1C6.66,1 1,6.66 1,13.568L1,37.671C1,44.579 6.66,50.239 13.568,50.239L140.194,50.239C147.102,50.239 152.762,44.579 152.762,37.671Z" style="fill:white;"/>
        <path d="M54.927,14.4L55.657,14.4L55.657,19L54.927,19L54.927,18.17C54.577,18.72 53.997,19.08 53.217,19.08C51.907,19.08 50.977,18.07 50.977,16.7C50.977,15.32 51.907,14.33 53.217,14.33C53.997,14.33 54.577,14.68 54.927,15.23L54.927,14.4ZM53.307,18.39C54.297,18.39 54.927,17.68 54.927,16.7C54.927,15.72 54.297,15.02 53.307,15.02C52.327,15.02 51.677,15.72 51.677,16.7C51.677,17.68 52.327,18.39 53.307,18.39ZM59.108,14.33C60.028,14.33 60.938,14.87 60.938,16.17L60.938,19L60.218,19L60.218,16.27C60.218,15.39 59.598,14.96 58.918,14.96C58.228,14.96 57.628,15.39 57.628,16.27L57.628,19L56.908,19L56.908,14.4L57.628,14.4L57.628,15.02C57.978,14.54 58.538,14.33 59.108,14.33ZM66.011,12.5L66.741,12.5L66.741,19L66.011,19L66.011,18.17C65.661,18.72 65.081,19.08 64.301,19.08C62.991,19.08 62.061,18.07 62.061,16.7C62.061,15.32 62.991,14.33 64.301,14.33C65.081,14.33 65.661,14.68 66.011,15.23L66.011,12.5ZM64.391,18.39C65.381,18.39 66.011,17.68 66.011,16.7C66.011,15.72 65.381,15.02 64.391,15.02C63.411,15.02 62.761,15.72 62.761,16.7C62.761,17.68 63.411,18.39 64.391,18.39ZM68.712,15.25C69.062,14.62 69.682,14.34 70.332,14.33L70.332,15.02C69.622,15.03 68.712,15.4 68.712,16.52L68.712,19L67.992,19L67.992,14.4L68.712,14.4L68.712,15.25ZM73.141,19.09C71.761,19.09 70.801,18.07 70.801,16.7C70.801,15.32 71.761,14.32 73.141,14.32C74.521,14.32 75.481,15.32 75.481,16.7C75.481,18.07 74.521,19.09 73.141,19.09ZM73.141,18.39C74.111,18.39 74.751,17.67 74.751,16.7C74.751,15.73 74.111,15.02 73.141,15.02C72.171,15.02 71.521,15.73 71.521,16.7C71.521,17.67 72.171,18.39 73.141,18.39ZM77.035,13.42C76.815,13.42 76.595,13.24 76.595,12.97C76.595,12.7 76.815,12.54 77.035,12.54C77.255,12.54 77.475,12.7 77.475,12.97C77.475,13.24 77.255,13.42 77.035,13.42ZM77.395,19L76.675,19L76.675,14.4L77.405,14.4L77.395,19ZM82.544,12.5L83.274,12.5L83.274,19L82.544,19L82.544,18.17C82.194,18.72 81.614,19.08 80.834,19.08C79.524,19.08 78.594,18.07 78.594,16.7C78.594,15.32 79.524,14.33 80.834,14.33C81.614,14.33 82.194,14.68 82.544,15.23L82.544,12.5ZM80.924,18.39C81.914,18.39 82.544,17.68 82.544,16.7C82.544,15.72 81.914,15.02 80.924,15.02C79.944,15.02 79.294,15.72 79.294,16.7C79.294,17.68 79.944,18.39 80.924,18.39ZM90.337,14.4L91.067,14.4L91.067,19L90.337,19L90.337,18.17C89.987,18.72 89.407,19.08 88.627,19.08C87.317,19.08 86.387,18.07 86.387,16.7C86.387,15.32 87.317,14.33 88.627,14.33C89.407,14.33 89.987,14.68 90.337,15.23L90.337,14.4ZM88.717,18.39C89.707,18.39 90.337,17.68 90.337,16.7C90.337,15.72 89.707,15.02 88.717,15.02C87.737,15.02 87.087,15.72 87.087,16.7C87.087,17.68 87.737,18.39 88.717,18.39ZM94.748,14.33C96.058,14.33 96.998,15.34 96.998,16.71C96.998,18.09 96.058,19.08 94.748,19.08C93.968,19.08 93.388,18.73 93.038,18.17L93.038,20.84L92.318,20.84L92.318,14.4L93.038,14.4L93.038,15.24C93.388,14.68 93.968,14.33 94.748,14.33ZM94.658,18.39C95.638,18.39 96.288,17.69 96.288,16.71C96.288,15.73 95.638,15.02 94.658,15.02C93.678,15.02 93.038,15.73 93.038,16.71C93.038,17.69 93.678,18.39 94.658,18.39ZM100.539,14.33C101.849,14.33 102.789,15.34 102.789,16.71C102.789,18.09 101.849,19.08 100.539,19.08C99.759,19.08 99.179,18.73 98.829,18.17L98.829,20.84L98.109,20.84L98.109,14.4L98.829,14.4L98.829,15.24C99.179,14.68 99.759,14.33 100.539,14.33ZM100.449,18.39C101.429,18.39 102.079,17.69 102.079,16.71C102.079,15.73 101.429,15.02 100.449,15.02C99.469,15.02 98.829,15.73 98.829,16.71C98.829,17.69 99.469,18.39 100.449,18.39ZM108.102,19.09C106.722,19.09 105.762,18.07 105.762,16.7C105.762,15.32 106.722,14.32 108.102,14.32C109.482,14.32 110.442,15.32 110.442,16.7C110.442,18.07 109.482,19.09 108.102,19.09ZM108.102,18.39C109.072,18.39 109.712,17.67 109.712,16.7C109.712,15.73 109.072,15.02 108.102,15.02C107.132,15.02 106.482,15.73 106.482,16.7C106.482,17.67 107.132,18.39 108.102,18.39ZM113.756,14.33C114.676,14.33 115.586,14.87 115.586,16.17L115.586,19L114.866,19L114.866,16.27C114.866,15.39 114.246,14.96 113.566,14.96C112.876,14.96 112.276,15.39 112.276,16.27L112.276,19L111.556,19L111.556,14.4L112.276,14.4L112.276,15.02C112.626,14.54 113.186,14.33 113.756,14.33Z" style="fill:white;fill-rule:nonzero;"/>
        <path d="M60.125,34.181C60.017,37.511 57.893,39.905 54.509,39.905C51.035,39.905 48.659,37.385 48.659,33.911C48.659,30.437 51.035,27.917 54.509,27.917C56.579,27.917 58.235,28.817 59.243,30.257L58.127,31.049C57.299,29.897 56.003,29.285 54.509,29.285C51.827,29.285 50.009,31.229 50.009,33.911C50.009,36.593 51.827,38.537 54.509,38.537C56.723,38.537 58.361,37.115 58.595,34.865L54.455,34.865L54.455,33.605L60.125,33.605L60.125,34.181ZM66.176,39.923C63.692,39.923 61.964,38.087 61.964,35.621C61.964,33.137 63.692,31.337 66.176,31.337C68.66,31.337 70.388,33.137 70.388,35.621C70.388,38.087 68.66,39.923 66.176,39.923ZM66.176,38.663C67.922,38.663 69.074,37.367 69.074,35.621C69.074,33.875 67.922,32.597 66.176,32.597C64.43,32.597 63.26,33.875 63.26,35.621C63.26,37.367 64.43,38.663 66.176,38.663ZM76.353,39.923C73.869,39.923 72.141,38.087 72.141,35.621C72.141,33.137 73.869,31.337 76.353,31.337C78.837,31.337 80.565,33.137 80.565,35.621C80.565,38.087 78.837,39.923 76.353,39.923ZM76.353,38.663C78.099,38.663 79.251,37.367 79.251,35.621C79.251,33.875 78.099,32.597 76.353,32.597C74.607,32.597 73.437,33.875 73.437,35.621C73.437,37.367 74.607,38.663 76.353,38.663ZM89.429,31.481L90.743,31.481L90.743,39.149C90.743,41.525 89.051,43.181 86.387,43.181C84.947,43.181 83.723,42.623 82.967,41.723L83.849,40.985C84.515,41.723 85.433,42.047 86.387,42.047C87.917,42.047 89.429,41.129 89.429,39.149L89.429,38.267C88.799,39.257 87.755,39.905 86.351,39.905C83.993,39.905 82.319,38.087 82.319,35.621C82.319,33.155 83.993,31.355 86.351,31.355C87.755,31.355 88.799,31.985 89.429,32.975L89.429,31.481ZM86.513,38.663C88.277,38.663 89.429,37.385 89.429,35.621C89.429,33.857 88.277,32.597 86.513,32.597C84.749,32.597 83.579,33.857 83.579,35.621C83.579,37.385 84.749,38.663 86.513,38.663ZM94.291,39.761L92.995,39.761L92.995,28.061L94.291,28.061L94.291,39.761ZM100.397,31.337C102.773,31.337 104.357,33.155 104.357,35.621L104.357,36.035L97.571,36.035C97.733,37.691 98.867,38.789 100.505,38.789C101.729,38.789 102.575,38.231 103.043,37.529L103.961,38.195C103.241,39.257 102.017,39.923 100.505,39.923C97.985,39.923 96.311,38.087 96.311,35.621C96.311,33.155 97.913,31.337 100.397,31.337ZM100.397,32.417C98.777,32.417 97.751,33.515 97.571,35.135L103.151,35.135C102.971,33.569 101.945,32.417 100.397,32.417ZM115.249,28.061C117.013,28.061 118.597,29.465 118.597,31.625C118.597,33.785 117.013,35.189 115.249,35.189L111.325,35.189L111.325,39.761L109.975,39.761L109.975,28.061L115.249,28.061ZM115.051,33.875C116.311,33.875 117.229,32.885 117.229,31.625C117.229,30.383 116.329,29.393 115.051,29.393L111.325,29.393L111.325,33.875L115.051,33.875ZM121.783,39.761L120.487,39.761L120.487,28.061L121.783,28.061L121.783,39.761ZM130.913,31.481L132.227,31.481L132.227,39.761L130.913,39.761L130.913,38.267C130.283,39.257 129.239,39.905 127.835,39.905C125.477,39.905 123.803,38.087 123.803,35.621C123.803,33.137 125.477,31.355 127.835,31.355C129.239,31.355 130.283,31.985 130.913,32.975L130.913,31.481ZM127.997,38.663C129.779,38.663 130.913,37.385 130.913,35.621C130.913,33.857 129.779,32.597 127.997,32.597C126.233,32.597 125.063,33.857 125.063,35.621C125.063,37.385 126.233,38.663 127.997,38.663ZM140.185,31.481L141.535,31.481L136.927,43.073L135.649,43.073L136.945,39.743L133.705,31.481L135.055,31.481L137.611,37.961L140.185,31.481Z" style="fill:white;fill-rule:nonzero;"/>
        <path d="M8.671,42.119L8.671,9.143L38.322,25.159L8.671,42.119Z" style="fill:rgb(92,169,179);fill-rule:nonzero;"/>
        <path d="M8.671,9.143L29.651,30.123L38.322,25.159L8.671,9.143Z" style="fill:rgb(200,219,155);fill-rule:nonzero;"/>
        <path d="M29.472,20.374L8.671,42.119L38.322,25.159L29.472,20.374Z" style="fill:rgb(172,80,103);fill-rule:nonzero;"/>
        <path d="M29.652,30.123L38.323,25.159L29.472,20.374L24.8,25.271L29.652,30.123Z" style="fill:rgb(244,166,118);fill-rule:nonzero;"/>
    </g>
</svg>
