<svg width="93" height="45" viewBox="0 0 93 45" fill="none" xmlns="http://www.w3.org/2000/svg">
<path d="M3.89181 27.3907C4.15793 27.3408 4.45732 27.3076 4.78997 27.3076C4.83987 25.5611 5.83783 22.6671 6.90231 19.6732C5.90436 19.5235 5.05609 19.5235 4.54048 19.8728C4.17456 18.4257 5.55507 18.143 7.45119 18.1763C8.43251 15.3986 9.38057 12.6875 9.58016 10.8745C8.00006 10.7747 6.60293 10.9411 5.7214 11.939C5.43864 12.2384 4.67354 8.46282 8.13312 7.83078C10.944 7.31517 16.9318 9.61047 18.8113 6.96588C19.094 6.58333 19.3269 10.0429 17.4474 10.9743C16.2498 11.5565 14.6697 11.49 13.0231 11.2904C12.7903 12.8871 11.9254 15.5317 11.0272 18.4091C12.9898 18.5422 14.7196 18.5255 15.0856 17.5941C15.6677 21.0703 13.1894 20.9539 10.4284 20.3884C9.66332 22.9498 8.94812 25.5445 8.682 27.6568C11.0937 27.9396 13.5055 28.0394 14.5699 26.5258C14.8527 26.1433 15.0856 29.6029 13.2061 30.5177C9.91281 32.1476 3.84191 28.8211 1.48008 31.4823C1.19733 31.7817 0.432228 28.0061 3.89181 27.3907ZM17.9131 17.1617C17.8965 17.0951 21.5889 16.7625 21.5224 18.8915C21.4725 20.2553 18.279 27.241 18.9443 29.4864C20.5743 27.4074 24.9154 17.1617 24.9154 17.1617C24.8988 17.0951 28.5912 16.7625 28.5081 18.8915C28.4582 20.272 25.6639 25.8439 25.9466 29.5862C27.2274 28.239 28.7742 24.5299 29.0569 23.8313C29.0902 23.7648 29.1567 23.7316 29.2233 23.7316C29.3563 23.7316 29.4395 23.848 29.4062 23.9644C29.007 25.1952 27.3438 30.2682 26.4789 30.7838C25.4809 31.3992 22.7698 30.368 22.5203 29.2369C22.038 27.1412 24.0672 22.1515 24.7491 19.141C23.4185 22.6172 20.3415 30.4179 19.277 30.8836C18.2956 31.2994 15.6344 30.4511 15.4182 29.1205C15.019 26.7088 18.4287 19.0911 17.9131 17.1617ZM25.3146 38.9171C24.6327 34.7257 30.9863 20.6213 30.321 17.1284C30.3044 17.0619 34.1465 17.1284 33.9137 19.2407C33.6974 21.2533 30.8366 29.187 29.4894 35.0916C31.9011 26.1433 36.5416 17.6773 37.2568 17.2615C37.9055 16.8789 39.9014 17.4444 40.7164 18.8748C41.8142 20.8042 39.4856 30.1185 35.6268 30.9002C34.7619 31.0832 32.7161 29.8025 32.3003 29.2868C30.8699 32.9626 29.5393 37.0709 28.9073 40.8631C28.8241 41.2623 25.5974 40.6469 25.3146 38.9171ZM37.6061 18.3093C37.3899 18.2262 34.8285 22.8667 32.4833 28.8045C35.5603 30.5343 38.3878 18.6253 37.6061 18.3093ZM40.3837 28.9875C39.7018 24.7794 46.1386 10.1926 45.7062 7.08231C45.6896 7.01578 49.2157 7.19874 48.9828 9.31108C48.75 11.49 45.3735 20.6712 44.2425 26.6589C45.8559 22.6671 48.6668 16.9621 50.2802 17.1118C51.2116 17.1949 53.0911 18.0765 53.2574 18.642C53.7231 20.2054 50.4631 27.3408 50.3966 29.7027C51.6939 28.4552 53.3239 24.5465 53.6067 23.8313C53.6399 23.7648 53.7065 23.7316 53.773 23.7316C53.9061 23.7316 53.9892 23.848 53.956 23.9644C53.5568 25.1952 51.7272 30.8337 50.9954 30.9335C49.5483 31.1331 47.1033 30.0852 46.9037 28.7712C46.6542 26.9915 49.4984 21.22 49.7812 18.4257C48.9495 18.2927 43.9431 28.3055 43.9764 30.8836C44.0762 31.3493 40.6831 30.7505 40.3837 28.9875ZM53.4071 28.7546C52.4258 25.977 54.6545 19.0245 57.1661 17.4112C58.0309 16.8457 60.3761 16.9953 61.1246 17.4943C61.7733 17.9101 61.3575 18.3093 61.3575 18.3093C58.6464 17.0452 55.4529 28.8211 56.7003 29.9688C58.1474 31.2994 61.5903 20.405 59.5113 19.9726C59.5113 19.9726 60.4759 18.6087 61.3076 18.7085C64.185 19.0911 62.0061 28.871 57.9811 30.7671C56.8833 31.2828 54.272 31.183 53.4071 28.7546ZM62.1226 29.1538C61.6901 26.5092 64.9667 19.0578 64.4345 17.1284C64.4179 17.0619 68.3099 16.7625 68.2434 18.8915C68.1935 20.089 66.0811 24.4468 65.7152 28.0228C66.9793 24.0975 69.8734 16.9454 71.6697 17.1118C72.6011 17.1949 74.2311 17.96 74.3974 18.5089C74.6137 19.2407 72.3849 22.7336 72.9837 24.8958C68.0271 24.6796 71.2372 19.0744 71.1707 18.4257C70.3391 18.2927 65.8815 28.2057 65.8982 30.8004C65.9148 30.9002 65.7984 30.9667 65.7152 30.9501C65 30.8669 62.3388 30.4844 62.1226 29.1538ZM79.3539 16.8623C74.597 16.2302 77.6242 13.5524 77.4246 11.7893C82.5807 12.621 78.9381 14.4007 79.3539 16.8623ZM72.967 29.1538C72.5013 26.609 75.9276 19.0578 75.412 17.1284C75.3954 17.0619 79.2542 16.7625 79.1876 18.8915C79.1377 20.272 76.3767 25.7607 76.6096 29.5031C77.8736 28.0893 79.3706 24.5133 79.6533 23.8313C79.67 23.7648 79.7365 23.7316 79.8197 23.7316C79.9361 23.7316 80.0193 23.848 79.986 23.9644C79.6034 25.1952 77.7905 30.5177 76.9921 30.9002C76.1771 31.2661 73.1833 30.4012 72.967 29.1538ZM82.9133 30.8836C82.3146 31.2994 79.6201 30.5676 79.0047 29.4532C78.2063 28.0228 80.2022 20.7709 82.0318 18.4257C83.4622 16.6128 86.5559 17.0619 87.2877 17.4943C87.4707 17.5941 87.5372 17.6939 87.4374 17.9767C87.321 18.2927 87.0881 18.2262 86.7222 18.1264C84.8593 17.644 82.0651 27.8564 82.248 29.9355L88.1859 17.2947C88.3855 16.7459 91.9116 17.6606 91.5789 18.3592C91.2463 19.0578 88.8179 27.3408 88.7514 29.7027C90.0487 28.4552 91.6953 24.5465 91.9781 23.8313C92.0114 23.7648 92.0779 23.7316 92.1444 23.7316C92.2609 23.7316 92.3606 23.848 92.3108 23.9644C91.9282 25.1952 90.0986 30.8337 89.3668 30.9335C87.9031 31.1331 85.4581 30.0852 85.2752 28.7712C85.1088 27.6568 86.0236 24.2139 86.8719 21.3864C85.4082 25.1786 83.246 30.6507 82.9133 30.8836Z" fill="#3C4242"/>
<path d="M1 33.6259H23.4033" stroke="#333333" stroke-width="0.420324" stroke-miterlimit="10" stroke-linecap="round" stroke-linejoin="round"/>
<path d="M32.9863 33.6259H92.0368" stroke="#3C4242" stroke-width="0.420324" stroke-miterlimit="10" stroke-linecap="round" stroke-linejoin="round"/>
<path d="M40.9502 41.2617C40.7866 41.2617 40.5977 41.1972 40.3818 41.0689C40.1667 40.9398 39.9378 40.7693 39.6967 40.5565C39.4555 40.3438 39.2181 40.1126 38.9838 39.8621C38.7503 39.6125 38.5345 39.3636 38.3378 39.1155C38.1412 38.8682 37.976 38.6477 37.8424 38.4549L36.7624 40.7862C36.7101 40.8999 36.6287 40.9805 36.5173 41.0274C36.406 41.0743 36.2854 41.1027 36.1556 41.1127C36.0257 41.1227 35.8975 41.1273 35.7715 41.1273C35.8675 40.989 35.9666 40.83 36.0664 40.6518C36.1671 40.4736 36.2854 40.2585 36.4229 40.0058C36.5604 39.7531 36.7217 39.4466 36.9076 39.0848C37.0934 38.7238 37.3139 38.2913 37.5705 37.789C37.8262 37.2866 38.1289 36.6967 38.4784 36.0184C38.5007 35.9785 38.5306 35.9232 38.5675 35.8517C38.6044 35.7803 38.6236 35.7142 38.6236 35.6551C38.6236 35.6005 38.6051 35.5575 38.5675 35.5253C38.5306 35.493 38.46 35.4769 38.3563 35.4769C38.178 35.4769 38.0052 35.5253 37.8385 35.6213C37.6718 35.7173 37.5228 35.8402 37.393 35.9892C37.2632 36.1375 37.161 36.2911 37.0865 36.4493C37.012 36.6076 36.9752 36.7489 36.9752 36.8726C36.9752 36.967 36.9936 37.0508 37.0305 37.1253C36.7854 37.1253 36.6126 37.0846 36.5127 37.0032C36.4121 36.9217 36.3622 36.8211 36.3622 36.702C36.3622 36.5338 36.4359 36.3656 36.5849 36.1974C36.7332 36.0292 36.9245 35.874 37.1587 35.7334C37.393 35.5921 37.6381 35.4799 37.8938 35.3954C38.1496 35.3117 38.3816 35.2695 38.5898 35.2695C38.7903 35.2695 38.9254 35.3063 38.9961 35.3809C39.0668 35.4554 39.1021 35.5368 39.1021 35.6259C39.1021 35.6804 39.0929 35.735 39.0745 35.7895C39.056 35.844 39.0353 35.8963 39.013 35.9454L38.0774 37.9649C38.1811 37.8658 38.3171 37.7744 38.4838 37.6899C38.6505 37.6061 38.8348 37.5094 39.0353 37.4003C39.3694 37.2221 39.7274 37.0139 40.1099 36.7766C40.4924 36.5392 40.8581 36.2888 41.2068 36.0268C41.5555 35.7641 41.8451 35.5122 42.0756 35.2695C42.1124 35.2994 42.1386 35.3509 42.1539 35.4254C42.1685 35.4999 42.1762 35.5568 42.1762 35.5959C42.1762 35.7496 42.0817 35.9178 41.892 36.1006C41.7023 36.2834 41.4557 36.4731 41.1515 36.6682C40.8473 36.8641 40.5132 37.0569 40.1491 37.2474C39.785 37.4379 39.427 37.6177 39.0745 37.7859C38.7219 37.9541 38.4039 38.1 38.122 38.2237C38.3447 38.4764 38.5621 38.7161 38.7734 38.9442C38.9846 39.1716 39.215 39.3944 39.4639 39.6125C39.7128 39.8307 40.0039 40.0534 40.338 40.2808C40.6722 40.5081 41.077 40.7532 41.5517 41.0159C41.4995 41.0804 41.418 41.1372 41.3067 41.1864C41.1953 41.2371 41.0762 41.2617 40.9502 41.2617Z" fill="#3C4242"/>
<path d="M46.9094 40.9796C46.4562 40.9796 46.1205 40.8882 45.9016 40.7046C45.6827 40.5218 45.5728 40.3013 45.5728 40.044C45.2533 40.3259 44.8861 40.5464 44.4706 40.7046C44.055 40.8628 43.6348 40.9419 43.2123 40.9419C42.7591 40.9419 42.4196 40.859 42.193 40.6931C41.9664 40.5272 41.8535 40.3228 41.8535 40.0809C41.8535 39.8581 41.9372 39.6231 42.1039 39.3757C42.2714 39.1284 42.4941 38.8956 42.7722 38.6775C43.0503 38.4601 43.3568 38.2827 43.6909 38.1467C44.025 38.0107 44.3553 37.9424 44.6826 37.9424C44.8531 37.9424 45.0113 37.9723 45.1557 38.0315C45.3009 38.0906 45.3731 38.212 45.3731 38.3956C45.3731 38.5838 45.2894 38.7604 45.1227 38.9264C44.956 39.0923 44.7363 39.2398 44.4659 39.368C44.1948 39.4971 43.8975 39.6016 43.5749 39.6837C43.2523 39.7659 42.9304 39.8159 42.6117 39.8358C42.5971 39.8858 42.5855 39.9326 42.5779 39.9772C42.5702 40.0217 42.5663 40.064 42.5663 40.1031C42.5663 40.2022 42.5925 40.2998 42.6447 40.3966C42.6962 40.4934 42.7853 40.5725 42.912 40.6339C43.038 40.6961 43.2162 40.7269 43.4466 40.7269C43.8399 40.7269 44.2301 40.6339 44.6165 40.4488C45.0021 40.2629 45.3401 40.034 45.6297 39.7621C45.6965 39.5593 45.8156 39.3565 45.9861 39.153C46.1566 38.9502 46.3632 38.7658 46.6044 38.5999C46.8456 38.434 47.1076 38.3003 47.3895 38.1989C47.6714 38.0975 47.9579 38.0468 48.2475 38.0468C48.418 38.0468 48.5762 38.0768 48.7206 38.136C48.865 38.1951 48.938 38.3165 48.938 38.5C48.938 38.7528 48.8097 38.974 48.554 39.1645C48.2982 39.355 47.9694 39.5071 47.5684 39.6215C47.1675 39.7352 46.7558 39.8074 46.3325 39.8366C46.3179 39.8865 46.3064 39.9334 46.2987 39.9779C46.291 40.0225 46.2872 40.0647 46.2872 40.1039C46.2872 40.203 46.311 40.3044 46.3594 40.4081C46.4078 40.5118 46.4931 40.5971 46.6152 40.6639C46.7381 40.7307 46.914 40.7637 47.1444 40.7637C47.464 40.7637 47.7827 40.7008 48.1023 40.5748C48.4218 40.4488 48.7183 40.2829 48.9933 40.077C49.2683 39.8719 49.498 39.6499 49.6839 39.4126L49.8175 39.4794C49.6171 39.7767 49.359 40.0379 49.0433 40.2629C48.7276 40.488 48.3865 40.6639 48.0186 40.7899C47.6499 40.9166 47.2804 40.9796 46.9094 40.9796ZM42.6662 39.6945C42.8667 39.6499 43.0933 39.5847 43.3452 39.4979C43.598 39.4111 43.8407 39.3089 44.075 39.1898C44.3092 39.0708 44.502 38.9402 44.6541 38.7965C44.8062 38.6529 44.8823 38.5024 44.8823 38.3434C44.8823 38.2888 44.8677 38.2466 44.8377 38.2174C44.8078 38.1874 44.7448 38.1728 44.6488 38.1728C44.4705 38.1728 44.2808 38.2189 44.0803 38.3103C43.8799 38.4017 43.6871 38.5216 43.5012 38.6706C43.3153 38.8188 43.1486 38.9824 42.9996 39.1606C42.8513 39.3381 42.7399 39.5163 42.6662 39.6945ZM46.3863 39.6945C46.5868 39.6499 46.8057 39.5908 47.0438 39.5163C47.2812 39.4418 47.5078 39.3542 47.7236 39.2528C47.9387 39.1514 48.1169 39.0354 48.2582 38.9041C48.3988 38.7727 48.4695 38.6283 48.4695 38.4701C48.4695 38.4156 48.451 38.3695 48.4134 38.3326C48.3765 38.2957 48.3097 38.2773 48.2129 38.2773C47.9755 38.2773 47.7359 38.3464 47.4947 38.4855C47.2535 38.6237 47.0346 38.8012 46.8372 39.0162C46.6405 39.2305 46.49 39.4571 46.3863 39.6945Z" fill="#3C4242"/>
<path d="M48.748 42.6948C48.6889 42.6948 48.6312 42.6741 48.5752 42.6319C48.5191 42.5896 48.4768 42.5451 48.4469 42.4982C48.4169 42.4513 48.4023 42.4229 48.4023 42.4129C48.506 42.1702 48.6082 41.9536 48.7088 41.7631C48.8095 41.5726 48.9093 41.3767 49.0099 41.1762C49.1098 40.9758 49.2089 40.7407 49.3049 40.4711C49.4017 40.2015 49.5015 39.8658 49.606 39.4648C49.7097 39.0639 49.8142 38.5661 49.9179 37.9724C49.9256 37.9278 49.9401 37.8955 49.9624 37.8756C49.9847 37.8556 50.04 37.8456 50.1291 37.8456C50.3219 37.8456 50.4594 37.8817 50.5416 37.9532C50.623 38.0246 50.6637 38.1029 50.6637 38.1867C50.6637 38.2558 50.6415 38.3795 50.5969 38.5577C50.5524 38.7359 50.4894 38.9463 50.4079 39.1891C50.5339 39.0255 50.6922 38.8596 50.8811 38.6913C51.0701 38.5231 51.2875 38.3818 51.5325 38.2681C51.7775 38.1544 52.0448 38.0976 52.3344 38.0976C52.6609 38.0976 52.9305 38.1759 53.1417 38.3311C53.353 38.487 53.459 38.6913 53.459 38.944C53.459 39.1368 53.3937 39.3412 53.2639 39.5562C53.1341 39.7713 52.952 39.9749 52.7185 40.1654C52.485 40.3559 52.2077 40.511 51.8889 40.6293C51.5694 40.7484 51.2168 40.8075 50.8312 40.8075C50.6376 40.8075 50.4825 40.7929 50.3634 40.763C50.2443 40.733 50.1852 40.7038 50.1852 40.6739C50.1852 40.6539 50.2128 40.6432 50.2689 40.6401C50.325 40.6378 50.3895 40.6362 50.464 40.6362C50.7613 40.6362 51.0447 40.5879 51.3159 40.4911C51.587 40.3943 51.8298 40.2668 52.0456 40.1085C52.2607 39.9503 52.4297 39.7744 52.5526 39.5816C52.6747 39.3888 52.7362 39.1983 52.7362 39.0101C52.7362 38.8519 52.6862 38.7167 52.5856 38.6053C52.4857 38.4939 52.3237 38.4386 52.1009 38.4386C51.9081 38.4386 51.7168 38.4793 51.5271 38.5607C51.3374 38.6422 51.1592 38.7466 50.9925 38.8726C50.825 38.9986 50.6768 39.1299 50.547 39.2659C50.4172 39.4019 50.3188 39.5248 50.252 39.6331C50.1184 40.0041 49.9847 40.362 49.851 40.7061C49.7174 41.0503 49.5891 41.3621 49.467 41.6417C49.3441 41.9213 49.2335 42.1502 49.1328 42.3284C49.033 42.5067 48.9493 42.6157 48.8824 42.6549C48.844 42.6826 48.7995 42.6948 48.748 42.6948Z" fill="#3C4242"/>
<path d="M57.5018 40.8083C57.2122 40.8083 56.9963 40.7476 56.8558 40.6263C56.7144 40.5049 56.6445 40.3574 56.6445 40.1846C56.6445 40.0709 56.676 39.9273 56.739 39.7537C56.802 39.5808 56.8857 39.3988 56.9894 39.2083C57.0931 39.0178 57.2137 38.838 57.3512 38.6698C57.4887 38.5016 57.6354 38.3641 57.7914 38.2573C57.9473 38.1513 58.0994 38.0976 58.2484 38.0976C58.3152 38.0976 58.3728 38.1114 58.4212 38.1383C58.4696 38.1652 58.4934 38.2066 58.4934 38.2604C58.4934 38.3196 58.4358 38.4163 58.3206 38.55C58.2054 38.6836 58.0702 38.8373 57.9143 39.0101C57.7583 39.1837 57.6231 39.365 57.5079 39.5555C57.3927 39.746 57.3351 39.928 57.3351 40.1016C57.3351 40.2798 57.3796 40.3989 57.4687 40.458C57.5578 40.5172 57.6953 40.5471 57.8812 40.5471C58.1339 40.5471 58.4028 40.4634 58.6885 40.2944C58.9743 40.1262 59.2769 39.832 59.5965 39.4111L59.6963 39.4856C59.4813 39.9111 59.1709 40.2383 58.7661 40.4657C58.3605 40.6946 57.9396 40.8083 57.5018 40.8083ZM58.8376 37.4078C58.7185 37.4078 58.6133 37.3878 58.5203 37.3486C58.4274 37.3087 58.3813 37.2472 58.3813 37.1627C58.3813 37.059 58.4719 36.9684 58.654 36.8916C58.836 36.8148 59.0158 36.7764 59.194 36.7764C59.3053 36.7764 59.3945 36.794 59.4613 36.8286C59.5281 36.8632 59.5611 36.9231 59.5611 37.0068C59.5611 37.1005 59.4851 37.1912 59.333 37.278C59.1817 37.3648 59.0165 37.4078 58.8376 37.4078Z" fill="#3C4242"/>
<path d="M60.3288 40.9573C60.0092 40.9573 59.7642 40.8951 59.5937 40.7714C59.4232 40.6478 59.3379 40.4649 59.3379 40.2222C59.3379 40.0048 59.3993 39.736 59.5215 39.4164C59.6436 39.0969 59.798 38.7697 59.9839 38.4325C59.9094 38.4225 59.8395 38.414 59.7727 38.4063C59.7058 38.3987 59.6428 38.3879 59.5837 38.3733V38.2396C59.6428 38.2443 59.7135 38.2496 59.7949 38.2542C59.8764 38.2589 59.9693 38.2642 60.073 38.2688C60.2289 38.0015 60.3964 37.7427 60.5738 37.493C60.752 37.2434 60.9287 37.0206 61.1031 36.8247C61.2774 36.6296 61.4449 36.4729 61.6047 36.357C61.7644 36.241 61.8996 36.1826 62.011 36.1826C62.0701 36.1826 62.1239 36.1964 62.1723 36.2233C62.2207 36.2502 62.2445 36.2917 62.2445 36.3454C62.2445 36.4299 62.1669 36.5667 62.011 36.7579C61.8551 36.9484 61.6623 37.175 61.4318 37.4369C61.2014 37.6996 60.9786 37.9839 60.7635 38.2911C60.8304 38.2911 60.8987 38.2911 60.9694 38.2911C61.0401 38.2911 61.1084 38.2911 61.1753 38.2911C61.4203 38.2911 61.6784 38.2888 61.9495 38.2834C62.2207 38.2788 62.4934 38.2658 62.7684 38.2466V38.3802C62.3597 38.4102 61.9941 38.4325 61.6715 38.447C61.3489 38.4616 61.0608 38.4693 60.8081 38.4693C60.7781 38.4693 60.7505 38.4693 60.7244 38.4693C60.6983 38.4693 60.6706 38.4693 60.6406 38.4693C60.4701 38.732 60.3249 39.0016 60.2067 39.2789C60.0876 39.5562 60.0284 39.8258 60.0284 40.0885C60.0284 40.3013 60.0768 40.4534 60.1729 40.5448C60.2689 40.6362 60.4286 40.6823 60.6522 40.6823C61.0385 40.6823 61.4172 40.5686 61.7882 40.3405C62.1593 40.1131 62.4857 39.8036 62.7684 39.4126L62.9128 39.4871C62.7346 39.7644 62.5095 40.014 62.2391 40.2368C61.968 40.4596 61.6692 40.6355 61.3427 40.7637C61.0155 40.8928 60.6783 40.9573 60.3288 40.9573Z" fill="#3C4242"/>
<path d="M66.6459 41.0311C66.2895 41.0311 65.9922 40.952 65.7549 40.7937C65.5175 40.6355 65.3984 40.3981 65.3984 40.0809C65.3984 39.8336 65.4706 39.5924 65.6158 39.3565C65.7602 39.1215 65.9515 38.9103 66.1896 38.7221C66.427 38.5339 66.6904 38.3841 66.98 38.2727C67.2696 38.1613 67.5554 38.106 67.838 38.106C68.1422 38.106 68.3504 38.1652 68.4618 38.2842C68.5731 38.4033 68.6284 38.527 68.6284 38.6552C68.6284 38.7989 68.5785 38.9249 68.4779 39.0339C68.378 39.143 68.2421 39.1975 68.0715 39.1975C67.9456 39.1975 67.838 39.1607 67.7482 39.0862C67.8595 39.047 67.9563 38.9663 68.0378 38.845C68.1192 38.7236 68.1607 38.6084 68.1607 38.4993C68.1607 38.4402 68.1438 38.3941 68.1107 38.3618C68.0769 38.3295 68.0124 38.3134 67.9156 38.3134C67.7151 38.3134 67.5093 38.3726 67.2973 38.4916C67.086 38.6107 66.8886 38.7635 66.7073 38.9517C66.5253 39.1399 66.377 39.3381 66.2618 39.5455C66.1466 39.7537 66.089 39.9488 66.089 40.1324C66.089 40.286 66.1451 40.4266 66.2564 40.5556C66.3678 40.6839 66.5829 40.7484 66.9024 40.7484C67.1997 40.7484 67.4985 40.6939 67.7989 40.5848C68.0992 40.4757 68.3796 40.3198 68.64 40.117C68.8996 39.9142 69.1078 39.6761 69.2637 39.4042L69.4081 39.4787C69.2376 39.7759 69.0033 40.0417 68.7068 40.2768C68.4095 40.5118 68.0831 40.6962 67.7267 40.8298C67.3695 40.9642 67.0092 41.0311 66.6459 41.0311Z" fill="#3C4242"/>
<path d="M69.975 40.8383C69.6555 40.8383 69.4273 40.7653 69.2898 40.6193C69.1523 40.4734 69.084 40.2914 69.084 40.074C69.084 39.8366 69.1508 39.5539 69.2845 39.2275C69.4181 38.901 69.5948 38.5569 69.8137 38.1951C70.0326 37.8341 70.2723 37.4815 70.5319 37.1366C70.7915 36.7925 71.0512 36.4799 71.3116 36.1972C71.5712 35.9153 71.8109 35.6895 72.0298 35.5212C72.2487 35.353 72.4215 35.2685 72.5475 35.2685C72.6289 35.2685 72.6958 35.2993 72.748 35.3615C72.8002 35.4237 72.8409 35.4974 72.8709 35.5842C72.9001 35.671 72.9154 35.7486 72.9154 35.8177C72.9154 35.9514 72.8655 36.1258 72.7649 36.3416C72.665 36.5567 72.5237 36.7971 72.3416 37.0621C72.1596 37.3271 71.9445 37.5944 71.6956 37.864C71.4468 38.1337 71.1756 38.3925 70.883 38.6399C70.5895 38.8872 70.28 39.1 69.9527 39.2782C69.9082 39.4118 69.8729 39.5417 69.8467 39.6684C69.8206 39.7944 69.8076 39.915 69.8076 40.0287C69.8076 40.2215 69.8483 40.3651 69.9297 40.4596C70.0111 40.5533 70.134 40.6009 70.2976 40.6009C70.4981 40.6009 70.6971 40.5418 70.8937 40.4227C71.0904 40.3036 71.2762 40.1539 71.4506 39.9733C71.625 39.7928 71.7755 39.6062 71.9015 39.4126L72.0682 39.4718C71.7709 39.8927 71.4483 40.2253 71.0988 40.4703C70.7508 40.7161 70.376 40.8383 69.975 40.8383ZM70.0534 39.0262C70.313 38.8526 70.5657 38.6537 70.8107 38.4286C71.0558 38.2036 71.2839 37.9693 71.4959 37.7273C71.7079 37.4846 71.8954 37.2495 72.0582 37.0222C72.221 36.7948 72.3478 36.5905 72.4369 36.41C72.526 36.2295 72.5705 36.0897 72.5705 35.9906C72.5705 35.9414 72.5613 35.9091 72.5429 35.8938C72.5245 35.8792 72.5076 35.8715 72.493 35.8715C72.4338 35.8715 72.3317 35.9345 72.1865 36.0605C72.0421 36.1864 71.8731 36.3562 71.6795 36.569C71.4867 36.7817 71.2901 37.0245 71.0896 37.2964C70.8891 37.5683 70.6978 37.8533 70.5158 38.1506C70.333 38.4471 70.1793 38.7397 70.0534 39.0262Z" fill="#3C4242"/>
<path d="M72.2148 40.9643C71.9844 40.9643 71.7893 40.9136 71.6303 40.8122C71.4705 40.7108 71.3906 40.5564 71.3906 40.3482C71.3906 40.17 71.4498 39.978 71.5688 39.7729C71.6871 39.5678 71.8507 39.3642 72.0589 39.1637C72.2671 38.9633 72.5029 38.7804 72.7664 38.6145C73.0298 38.4486 73.3079 38.3165 73.6021 38.2174C73.8955 38.1183 74.1866 38.0692 74.4762 38.0692C74.7658 38.0692 75.007 38.1198 75.1998 38.2212C75.3926 38.3226 75.4894 38.4578 75.4894 38.6261C75.4894 38.7497 75.4395 38.8342 75.3388 38.8788C75.2382 38.9233 75.1069 38.9456 74.9432 38.9456C74.9578 38.9056 74.9709 38.8626 74.9824 38.8158C74.9939 38.7689 74.9993 38.7259 74.9993 38.686C74.9993 38.5723 74.9586 38.4747 74.8772 38.3925C74.795 38.3111 74.6544 38.2704 74.4539 38.2704C74.2458 38.2704 74.0345 38.3188 73.8187 38.4148C73.6036 38.5116 73.3955 38.6399 73.195 38.8012C72.9945 38.9625 72.8163 39.1369 72.6604 39.3251C72.5044 39.5132 72.3823 39.6991 72.2924 39.8819C72.2033 40.0648 72.1588 40.2284 72.1588 40.372C72.1588 40.5648 72.2586 40.6616 72.4599 40.6616C72.6304 40.6616 72.8163 40.6086 73.0168 40.5018C73.2172 40.3958 73.4231 40.2591 73.6351 40.0932C73.8464 39.9273 74.0491 39.7552 74.2419 39.577C74.4347 39.3988 74.606 39.2352 74.7543 39.0869C74.7835 39.057 74.8027 39.0424 74.8096 39.0424C74.8541 39.047 74.9118 39.057 74.9824 39.0723C75.0531 39.0869 75.1145 39.1069 75.166 39.1315C75.2182 39.1561 75.2444 39.1883 75.2444 39.2283C75.2444 39.2728 75.2106 39.3335 75.1437 39.4103C75.0769 39.4871 75.0024 39.5747 74.921 39.6738C74.8388 39.7729 74.765 39.8735 74.6982 39.9749C74.6314 40.0763 74.5984 40.1715 74.5984 40.2606C74.5984 40.3351 74.6275 40.4081 74.6875 40.4796C74.7466 40.5518 74.8434 40.5871 74.977 40.5871C75.1775 40.5871 75.441 40.4895 75.7675 40.2937C76.0939 40.0986 76.425 39.8051 76.7591 39.4134L76.8705 39.4879C76.7146 39.7552 76.5141 39.9903 76.269 40.193C76.024 40.3958 75.7621 40.5548 75.484 40.6685C75.206 40.7822 74.9325 40.839 74.6652 40.839C74.3902 40.839 74.1882 40.7845 74.0584 40.6754C73.9285 40.5664 73.8633 40.4481 73.8633 40.319C73.8633 40.2891 73.8671 40.256 73.8748 40.2192C73.8817 40.1823 73.8894 40.1439 73.897 40.1039C73.5775 40.3912 73.2864 40.6063 73.0229 40.7499C72.7587 40.8928 72.4891 40.9643 72.2148 40.9643Z" fill="#3C4242"/>
<path d="M77.7051 40.9942C77.3564 40.9942 77.0799 40.9435 76.8755 40.8421C76.6712 40.7407 76.5268 40.6155 76.4408 40.4673C76.3555 40.319 76.3125 40.17 76.3125 40.0217C76.3125 39.8735 76.3425 39.759 76.4016 39.6799C76.4615 39.6008 76.5337 39.5417 76.619 39.5017C76.7042 39.4618 76.7857 39.4326 76.864 39.4126C76.9424 39.3926 76.9954 39.3727 77.0253 39.3535C77.2481 39.1899 77.4524 39.0193 77.6383 38.8411C77.8242 38.6629 77.987 38.4747 78.1284 38.2765V38.1874C78.1284 38.0046 78.1745 37.874 78.2674 37.7972C78.3603 37.7204 78.4587 37.682 78.5624 37.682C78.6215 37.682 78.6661 37.692 78.696 37.712C78.726 37.7319 78.7406 37.7542 78.7406 37.7788C78.7406 37.8034 78.7298 37.8433 78.7075 37.8979C78.6853 37.9524 78.6737 38.0215 78.6737 38.106C78.6737 38.2696 78.7221 38.4463 78.8182 38.6368C78.9149 38.8273 79.011 39.0278 79.1077 39.2382C79.2038 39.4487 79.2522 39.6676 79.2522 39.895C79.2522 39.9595 79.2468 40.0225 79.2353 40.084C79.2245 40.1462 79.2076 40.2038 79.1853 40.2583C79.445 40.2284 79.69 40.1508 79.9204 40.0248C80.1509 39.8988 80.3736 39.6968 80.5887 39.4195L80.6886 39.494C80.5472 39.766 80.336 39.9726 80.0541 40.1139C79.7722 40.2553 79.4634 40.3428 79.1292 40.3774C79.0102 40.5902 78.8228 40.7461 78.567 40.8452C78.312 40.945 78.0239 40.9942 77.7051 40.9942ZM77.7274 40.7346C77.8165 40.7346 77.9356 40.7146 78.0838 40.6754C78.2321 40.6355 78.3473 40.5341 78.4295 40.3712C78.1176 40.3321 77.8411 40.2499 77.5999 40.1262C77.3587 40.0025 77.1782 39.8789 77.0599 39.7552C76.8963 39.7606 76.8149 39.8466 76.8149 40.0148C76.8149 40.193 76.8947 40.3574 77.0545 40.5087C77.2128 40.6585 77.4378 40.7346 77.7274 40.7346ZM78.4848 40.2514C78.4994 40.2023 78.5109 40.15 78.5178 40.0955C78.5255 40.041 78.5293 39.9764 78.5293 39.9027C78.5293 39.6699 78.4863 39.4387 78.4011 39.2083C78.3158 38.9778 78.2436 38.7612 78.1837 38.5585C78.0131 38.7466 77.8326 38.9264 77.6437 39.0969C77.4547 39.2674 77.2742 39.4103 77.1037 39.524C77.2151 39.6822 77.3879 39.8312 77.6214 39.9695C77.8557 40.1085 78.143 40.2023 78.4848 40.2514Z" fill="#3C4242"/>
<path d="M81.5469 40.9942C81.1982 40.9942 80.9217 40.9435 80.7173 40.8421C80.513 40.7407 80.3686 40.6155 80.2826 40.4673C80.1973 40.319 80.1543 40.17 80.1543 40.0217C80.1543 39.8735 80.1843 39.759 80.2434 39.6799C80.3033 39.6008 80.3755 39.5417 80.4608 39.5017C80.546 39.4618 80.6275 39.4326 80.7058 39.4126C80.7842 39.3926 80.8372 39.3727 80.8671 39.3535C81.0899 39.1899 81.2942 39.0193 81.4801 38.8411C81.666 38.6629 81.8288 38.4747 81.9702 38.2765V38.1874C81.9702 38.0046 82.0163 37.874 82.1092 37.7972C82.2021 37.7204 82.3005 37.682 82.4042 37.682C82.4633 37.682 82.5079 37.692 82.5378 37.712C82.5678 37.7319 82.5824 37.7542 82.5824 37.7788C82.5824 37.8034 82.5716 37.8433 82.5493 37.8979C82.5271 37.9524 82.5155 38.0215 82.5155 38.106C82.5155 38.2696 82.5639 38.4463 82.66 38.6368C82.7567 38.8273 82.8528 39.0278 82.9495 39.2382C83.0456 39.4487 83.0939 39.6676 83.0939 39.895C83.0939 39.9595 83.0886 40.0225 83.077 40.084C83.0663 40.1462 83.0494 40.2038 83.0271 40.2583C83.2868 40.2284 83.5318 40.1508 83.7622 40.0248C83.9927 39.8988 84.2154 39.6968 84.4305 39.4195L84.5304 39.494C84.389 39.766 84.1778 39.9726 83.8959 40.1139C83.614 40.2553 83.3052 40.3428 82.971 40.3774C82.852 40.5902 82.6646 40.7461 82.4088 40.8452C82.1545 40.945 81.8665 40.9942 81.5469 40.9942ZM81.5692 40.7346C81.6583 40.7346 81.7774 40.7146 81.9256 40.6754C82.0739 40.6355 82.1891 40.5341 82.2713 40.3712C81.9594 40.3321 81.6829 40.2499 81.4417 40.1262C81.2005 40.0025 81.02 39.8789 80.9017 39.7552C80.7381 39.7606 80.6567 39.8466 80.6567 40.0148C80.6567 40.193 80.7365 40.3574 80.8963 40.5087C81.0553 40.6585 81.2796 40.7346 81.5692 40.7346ZM82.3266 40.2514C82.3412 40.2023 82.3527 40.15 82.3596 40.0955C82.3673 40.041 82.3711 39.9764 82.3711 39.9027C82.3711 39.6699 82.3281 39.4387 82.2429 39.2083C82.1576 38.9778 82.0854 38.7612 82.0255 38.5585C81.8549 38.7466 81.6744 38.9264 81.4855 39.0969C81.2965 39.2674 81.116 39.4103 80.9455 39.524C81.0569 39.6822 81.2297 39.8312 81.4632 39.9695C81.6975 40.1085 81.9855 40.2023 82.3266 40.2514Z" fill="#3C4242"/>
<path d="M84.7001 42.6949C84.5142 42.6949 84.3514 42.6618 84.21 42.595C84.0687 42.5282 83.998 42.4306 83.998 42.3016C83.998 42.1433 84.058 42.002 84.1762 41.8783C84.2945 41.7547 84.4543 41.641 84.6556 41.5365C84.856 41.4328 85.0857 41.3337 85.3461 41.2392C85.6057 41.1455 85.8769 41.0511 86.1588 40.9573C86.2625 40.7745 86.3685 40.5702 86.476 40.3451C86.5836 40.1201 86.6857 39.8712 86.7825 39.5993C86.5452 39.8566 86.2909 40.0778 86.0198 40.2637C85.7486 40.4496 85.4606 40.5418 85.1564 40.5418C85.0151 40.5418 84.876 40.521 84.7385 40.4788C84.601 40.4365 84.4881 40.3713 84.399 40.2822C84.3099 40.193 84.2654 40.0794 84.2654 39.9403C84.2654 39.8021 84.3007 39.6408 84.3714 39.4579C84.442 39.2751 84.5288 39.0969 84.6333 38.9233C84.737 38.7505 84.8445 38.6068 84.9567 38.4924C85.0688 38.3779 85.1648 38.3219 85.2463 38.3219C85.2762 38.3219 85.33 38.3295 85.4076 38.3441C85.4859 38.3587 85.5597 38.3802 85.6303 38.4071C85.701 38.4348 85.7363 38.4632 85.7363 38.4924C85.6695 38.5569 85.595 38.6483 85.5136 38.7674C85.4314 38.8864 85.3523 39.0186 85.2739 39.1645C85.1963 39.3105 85.131 39.4526 85.0788 39.5916C85.0266 39.7299 85.0012 39.8489 85.0012 39.948C85.0012 40.0371 85.0304 40.1085 85.0903 40.1631C85.1495 40.2176 85.2539 40.2445 85.4022 40.2445C85.5428 40.2445 85.701 40.1992 85.8754 40.107C86.0497 40.0156 86.2241 39.8981 86.3992 39.7544C86.5736 39.6108 86.7349 39.4572 86.8839 39.2943C86.9062 39.2398 86.9262 39.1845 86.9454 39.1276C86.9638 39.0708 86.9807 39.0124 86.9953 38.9533C87.0176 38.8841 87.0714 38.8035 87.1566 38.7121C87.2419 38.6207 87.3778 38.5746 87.563 38.5746C87.5998 38.5746 87.6367 38.5761 87.6743 38.5784C87.7112 38.5807 87.7519 38.5869 87.7965 38.5969C87.7965 38.676 87.7611 38.8235 87.6905 39.0385C87.6198 39.2536 87.5192 39.5056 87.3894 39.7921C87.2595 40.0794 87.1052 40.3736 86.9269 40.6754C87.2757 40.5863 87.6175 40.4388 87.9516 40.2338C88.2858 40.0287 88.5569 39.7544 88.7643 39.4134L88.9087 39.4879C88.7973 39.7253 88.6284 39.9319 88.4018 40.1078C88.1752 40.2837 87.9209 40.4342 87.639 40.561C87.3571 40.687 87.0783 40.7922 86.8033 40.8767C86.6105 41.1932 86.4008 41.4904 86.1742 41.7677C85.9476 42.045 85.7102 42.2693 85.4613 42.4398C85.214 42.6096 84.9597 42.6949 84.7001 42.6949ZM84.644 42.4567C84.7554 42.4567 84.9429 42.3592 85.2063 42.1633C85.4698 41.9674 85.7502 41.6248 86.0474 41.1348C85.7432 41.2439 85.4606 41.3514 85.2009 41.4582C84.9413 41.5642 84.7331 41.6794 84.5772 41.8038C84.4213 41.9275 84.3437 42.0711 84.3437 42.2347C84.3437 42.2747 84.366 42.3215 84.4105 42.3761C84.4551 42.4299 84.5327 42.4567 84.644 42.4567Z" fill="#3C4242"/>
<path d="M88.999 40.69C88.9022 40.69 88.8192 40.6739 88.7486 40.6416C88.6779 40.6094 88.6426 40.5587 88.6426 40.4895C88.6426 40.435 88.6756 40.3843 88.7424 40.3375C88.8093 40.2906 88.893 40.253 88.9928 40.2261C89.0927 40.1992 89.191 40.1854 89.2878 40.1854C89.3769 40.1854 89.4476 40.1977 89.4991 40.2222C89.5505 40.2468 89.5766 40.2944 89.5766 40.3636C89.5766 40.4135 89.549 40.4627 89.4929 40.5118C89.4368 40.561 89.3646 40.6032 89.2755 40.6378C89.1864 40.6724 89.0958 40.69 88.999 40.69Z" fill="#3C4242"/>
</svg>
