<?xml version="1.0" encoding="UTF-8" standalone="no"?>
<!DOCTYPE svg PUBLIC "-//W3C//DTD SVG 1.1//EN" "http://www.w3.org/Graphics/SVG/1.1/DTD/svg11.dtd">
<svg width="100%" height="100%" viewBox="0 0 44 44" version="1.1" xmlns="http://www.w3.org/2000/svg" xmlns:xlink="http://www.w3.org/1999/xlink" xml:space="preserve" xmlns:serif="http://www.serif.com/" style="fill-rule:evenodd;clip-rule:evenodd;stroke-linecap:round;">
    <path d="M44,8C44,3.585 40.415,0 36,0L8,0C3.585,0 0,3.585 0,8L0,36C0,40.415 3.585,44 8,44L36,44C40.415,44 44,40.415 44,36L44,8Z" style="fill:rgb(248,249,250);"/>
    <path d="M22,23.667C24.301,23.667 26.167,21.801 26.167,19.5C26.167,17.199 24.301,15.333 22,15.333C19.699,15.333 17.833,17.199 17.833,19.5C17.833,21.801 19.699,23.667 22,23.667ZM22,23.667C18.318,23.667 15.333,25.905 15.333,28.667M22,23.667C25.682,23.667 28.667,25.905 28.667,28.667" style="fill:none;fill-rule:nonzero;stroke:rgb(128,125,126);stroke-width:1.5px;"/>
</svg>
