<svg width="791" height="732" viewBox="0 0 791 732" fill="none" xmlns="http://www.w3.org/2000/svg">
<path d="M9.10001 535C7.70001 535 6.30001 534.2 5.10001 533.5C3.20001 532.5 2 531.9 1 532.5L0 531C2 529.7 4.09999 530.9 5.89999 531.9C7.79999 532.9 9 533.5 10 532.9C11 532.2 11 530.9 10.7 528.8C10.5 526.7 10.3 524.3 12.2 523C14.2 521.7 16.3 522.9 18.1 523.9C20 524.9 21.2 525.5 22.2 524.9C23.2 524.2 23.2 522.9 22.9 520.8C22.7 518.7 22.5 516.3 24.4 515C26.4 513.7 28.5 514.9 30.3 515.9C32.2 516.9 33.4 517.5 34.4 516.9C35.4 516.2 35.4 514.9 35.1 512.8C34.9 510.7 34.7 508.3 36.6 507C38.6 505.7 40.7 506.9 42.5 507.9C44.4 508.9 45.6 509.5 46.6 508.9C47.6 508.2 47.6 506.9 47.3 504.8C47.1 502.7 46.9 500.3 48.8 499C50.8 497.7 52.9 498.9 54.7 499.9C56.6 500.9 57.8 501.5 58.8 500.9C59.8 500.2 59.8 498.9 59.6 496.8C59.4 494.7 59.2 492.3 61.1 491L62.1 492.5C61.1 493.2 61.1 494.5 61.3 496.6C61.5 498.7 61.7 501.1 59.8 502.4C57.8 503.7 55.7 502.5 53.9 501.5C52 500.5 50.8 499.9 49.8 500.5C48.8 501.2 48.8 502.5 49.1 504.6C49.3 506.7 49.5 509.1 47.6 510.4C45.6 511.7 43.5 510.5 41.7 509.5C39.8 508.5 38.6 507.9 37.6 508.5C36.6 509.2 36.6 510.5 36.9 512.6C37.1 514.7 37.3 517.1 35.4 518.4C33.4 519.7 31.3 518.5 29.5 517.5C27.6 516.5 26.4 515.9 25.4 516.5C24.4 517.2 24.4 518.5 24.7 520.6C24.9 522.7 25.1 525.1 23.2 526.4C21.2 527.7 19.1 526.5 17.3 525.5C15.4 524.5 14.2 523.9 13.2 524.5C12.2 525.2 12.2 526.5 12.5 528.6C12.7 530.7 12.9 533.1 11 534.4C10.3 534.8 9.70001 535 9.10001 535Z" fill="white"/>
<path d="M534.1 219C532.7 219 531.3 218.2 530.1 217.5C528.2 216.5 527 215.9 526 216.5L525 215C527 213.7 529.1 214.9 530.9 215.9C532.8 216.9 534 217.5 535 216.9C536 216.2 536 214.9 535.7 212.8C535.5 210.7 535.3 208.3 537.2 207C539.2 205.7 541.3 206.9 543.1 207.9C545 208.9 546.2 209.5 547.2 208.9C548.2 208.2 548.2 206.9 547.9 204.8C547.7 202.7 547.5 200.3 549.4 199C551.4 197.7 553.5 198.9 555.3 199.9C557.2 200.9 558.4 201.5 559.4 200.9C560.4 200.2 560.4 198.9 560.1 196.8C559.9 194.7 559.7 192.3 561.6 191C563.6 189.7 565.7 190.9 567.5 191.9C569.4 192.9 570.6 193.5 571.6 192.9C572.6 192.2 572.6 190.9 572.3 188.8C572.1 186.7 571.9 184.3 573.8 183C575.8 181.7 577.9 182.9 579.7 183.9C581.6 184.9 582.8 185.5 583.8 184.9C584.8 184.2 584.8 182.9 584.6 180.8C584.4 178.7 584.2 176.3 586.1 175L587.1 176.5C586.1 177.2 586.1 178.5 586.3 180.6C586.5 182.7 586.7 185.1 584.8 186.4C582.8 187.7 580.7 186.5 578.9 185.5C577 184.5 575.8 183.9 574.8 184.5C573.8 185.2 573.8 186.5 574.1 188.6C574.3 190.7 574.5 193.1 572.6 194.4C570.6 195.7 568.5 194.5 566.7 193.5C564.8 192.5 563.6 191.9 562.6 192.5C561.6 193.2 561.6 194.5 561.9 196.6C562.1 198.7 562.3 201.1 560.4 202.4C558.4 203.7 556.3 202.5 554.5 201.5C552.6 200.5 551.4 199.9 550.4 200.5C549.4 201.2 549.4 202.5 549.7 204.6C549.9 206.7 550.1 209.1 548.2 210.4C546.2 211.7 544.1 210.5 542.3 209.5C540.4 208.5 539.2 207.9 538.2 208.5C537.2 209.2 537.2 210.5 537.5 212.6C537.7 214.7 537.9 217.1 536 218.4C535.3 218.8 534.7 219 534.1 219Z" fill="white"/>
<path d="M566.1 488C564.7 488 563.3 487.2 562.1 486.5C560.2 485.5 559 484.9 558 485.5L557 484C559 482.7 561.1 483.9 562.9 484.9C564.8 485.9 566 486.5 567 485.9C568 485.2 568 483.9 567.7 481.8C567.5 479.7 567.3 477.3 569.2 476C571.2 474.7 573.3 475.9 575.1 476.9C577 477.9 578.2 478.5 579.2 477.9C580.2 477.2 580.2 475.9 579.9 473.8C579.7 471.7 579.5 469.3 581.4 468C583.4 466.7 585.5 467.9 587.3 468.9C589.2 469.9 590.4 470.5 591.4 469.9C592.4 469.2 592.4 467.9 592.1 465.8C591.9 463.7 591.7 461.3 593.6 460C595.6 458.7 597.7 459.9 599.5 460.9C601.4 461.9 602.6 462.5 603.6 461.9C604.6 461.2 604.6 459.9 604.3 457.8C604.1 455.7 603.9 453.3 605.8 452C607.8 450.7 609.9 451.9 611.7 452.9C613.6 453.9 614.8 454.5 615.8 453.9C616.8 453.2 616.8 451.9 616.6 449.8C616.4 447.7 616.2 445.3 618.1 444L619.1 445.5C618.1 446.2 618.1 447.5 618.3 449.6C618.5 451.7 618.7 454.1 616.8 455.4C614.8 456.7 612.7 455.5 610.9 454.5C609 453.5 607.8 452.9 606.8 453.5C605.8 454.2 605.8 455.5 606.1 457.6C606.3 459.7 606.5 462.1 604.6 463.4C602.6 464.7 600.5 463.5 598.7 462.5C596.8 461.5 595.6 460.9 594.6 461.5C593.6 462.2 593.6 463.5 593.9 465.6C594.1 467.7 594.3 470.1 592.4 471.4C590.4 472.7 588.3 471.5 586.5 470.5C584.6 469.5 583.4 468.9 582.4 469.5C581.4 470.2 581.4 471.5 581.7 473.6C581.9 475.7 582.1 478.1 580.2 479.4C578.2 480.7 576.1 479.5 574.3 478.5C572.4 477.5 571.2 476.9 570.2 477.5C569.2 478.2 569.2 479.5 569.5 481.6C569.7 483.7 569.9 486.1 568 487.4C567.3 487.8 566.7 488 566.1 488Z" fill="white"/>
<path d="M728.923 172.482C729.333 172.482 729.665 172.151 729.665 171.741C729.665 171.332 729.333 171 728.923 171C728.514 171 728.182 171.332 728.182 171.741C728.182 172.151 728.514 172.482 728.923 172.482Z" fill="#8643DC"/>
<path d="M725.217 176.188C725.627 176.188 725.959 175.857 725.959 175.447C725.959 175.038 725.627 174.706 725.217 174.706C724.808 174.706 724.476 175.038 724.476 175.447C724.476 175.857 724.808 176.188 725.217 176.188Z" fill="#8643DC"/>
<path d="M721.326 179.895C721.735 179.895 722.067 179.563 722.067 179.153C722.067 178.744 721.735 178.412 721.326 178.412C720.916 178.412 720.585 178.744 720.585 179.153C720.585 179.563 720.916 179.895 721.326 179.895Z" fill="#8643DC"/>
<path d="M717.62 183.601C718.029 183.601 718.361 183.269 718.361 182.859C718.361 182.45 718.029 182.118 717.62 182.118C717.21 182.118 716.879 182.45 716.879 182.859C716.879 183.269 717.21 183.601 717.62 183.601Z" fill="#8643DC"/>
<path d="M713.728 187.492C714.138 187.492 714.47 187.16 714.47 186.751C714.47 186.341 714.138 186.01 713.728 186.01C713.319 186.01 712.987 186.341 712.987 186.751C712.987 187.16 713.319 187.492 713.728 187.492Z" fill="#8643DC"/>
<path d="M710.022 191.198C710.432 191.198 710.764 190.866 710.764 190.457C710.764 190.048 710.432 189.716 710.022 189.716C709.613 189.716 709.281 190.048 709.281 190.457C709.281 190.866 709.613 191.198 710.022 191.198Z" fill="#8643DC"/>
<path d="M706.131 194.904C706.54 194.904 706.872 194.572 706.872 194.163C706.872 193.754 706.54 193.422 706.131 193.422C705.721 193.422 705.39 193.754 705.39 194.163C705.39 194.572 705.721 194.904 706.131 194.904Z" fill="#8643DC"/>
<path d="M702.425 198.61C702.834 198.61 703.166 198.278 703.166 197.869C703.166 197.46 702.834 197.128 702.425 197.128C702.015 197.128 701.684 197.46 701.684 197.869C701.684 198.278 702.015 198.61 702.425 198.61Z" fill="#8643DC"/>
<path d="M698.534 202.316C698.943 202.316 699.275 201.985 699.275 201.575C699.275 201.166 698.943 200.834 698.534 200.834C698.124 200.834 697.792 201.166 697.792 201.575C697.792 201.985 698.124 202.316 698.534 202.316Z" fill="#8643DC"/>
<path d="M694.827 206.022C695.237 206.022 695.569 205.691 695.569 205.281C695.569 204.872 695.237 204.54 694.827 204.54C694.418 204.54 694.086 204.872 694.086 205.281C694.086 205.691 694.418 206.022 694.827 206.022Z" fill="#8643DC"/>
<path d="M690.936 209.728C691.346 209.728 691.677 209.397 691.677 208.987C691.677 208.578 691.346 208.246 690.936 208.246C690.527 208.246 690.195 208.578 690.195 208.987C690.195 209.397 690.527 209.728 690.936 209.728Z" fill="#8643DC"/>
<path d="M687.23 213.435C687.639 213.435 687.971 213.103 687.971 212.693C687.971 212.284 687.639 211.952 687.23 211.952C686.821 211.952 686.489 212.284 686.489 212.693C686.489 213.103 686.821 213.435 687.23 213.435Z" fill="#8643DC"/>
<path d="M683.339 217.141C683.748 217.141 684.08 216.809 684.08 216.399C684.08 215.99 683.748 215.658 683.339 215.658C682.929 215.658 682.597 215.99 682.597 216.399C682.597 216.809 682.929 217.141 683.339 217.141Z" fill="#8643DC"/>
<path d="M679.633 220.847C680.042 220.847 680.374 220.515 680.374 220.105C680.374 219.696 680.042 219.364 679.633 219.364C679.223 219.364 678.891 219.696 678.891 220.105C678.891 220.515 679.223 220.847 679.633 220.847Z" fill="#8643DC"/>
<path d="M675.741 224.553C676.151 224.553 676.482 224.221 676.482 223.812C676.482 223.402 676.151 223.07 675.741 223.07C675.332 223.07 675 223.402 675 223.812C675 224.221 675.332 224.553 675.741 224.553Z" fill="#8643DC"/>
<path d="M733.371 176.93C733.78 176.93 734.112 176.598 734.112 176.188C734.112 175.779 733.78 175.447 733.371 175.447C732.961 175.447 732.629 175.779 732.629 176.188C732.629 176.598 732.961 176.93 733.371 176.93Z" fill="#8643DC"/>
<path d="M729.664 180.636C730.074 180.636 730.406 180.304 730.406 179.895C730.406 179.485 730.074 179.153 729.664 179.153C729.255 179.153 728.923 179.485 728.923 179.895C728.923 180.304 729.255 180.636 729.664 180.636Z" fill="#8643DC"/>
<path d="M725.773 184.527C726.182 184.527 726.514 184.195 726.514 183.786C726.514 183.377 726.182 183.045 725.773 183.045C725.364 183.045 725.032 183.377 725.032 183.786C725.032 184.195 725.364 184.527 725.773 184.527Z" fill="#8643DC"/>
<path d="M721.882 188.233C722.291 188.233 722.623 187.901 722.623 187.492C722.623 187.083 722.291 186.751 721.882 186.751C721.472 186.751 721.141 187.083 721.141 187.492C721.141 187.901 721.472 188.233 721.882 188.233Z" fill="#8643DC"/>
<path d="M718.176 191.939C718.585 191.939 718.917 191.607 718.917 191.198C718.917 190.789 718.585 190.457 718.176 190.457C717.766 190.457 717.434 190.789 717.434 191.198C717.434 191.607 717.766 191.939 718.176 191.939Z" fill="#8643DC"/>
<path d="M714.284 195.645C714.694 195.645 715.026 195.314 715.026 194.904C715.026 194.495 714.694 194.163 714.284 194.163C713.875 194.163 713.543 194.495 713.543 194.904C713.543 195.314 713.875 195.645 714.284 195.645Z" fill="#8643DC"/>
<path d="M710.578 199.352C710.988 199.352 711.319 199.02 711.319 198.61C711.319 198.201 710.988 197.869 710.578 197.869C710.169 197.869 709.837 198.201 709.837 198.61C709.837 199.02 710.169 199.352 710.578 199.352Z" fill="#8643DC"/>
<path d="M706.687 203.058C707.096 203.058 707.428 202.726 707.428 202.316C707.428 201.907 707.096 201.575 706.687 201.575C706.277 201.575 705.946 201.907 705.946 202.316C705.946 202.726 706.277 203.058 706.687 203.058Z" fill="#8643DC"/>
<path d="M702.981 206.764C703.39 206.764 703.722 206.432 703.722 206.022C703.722 205.613 703.39 205.281 702.981 205.281C702.571 205.281 702.24 205.613 702.24 206.022C702.24 206.432 702.571 206.764 702.981 206.764Z" fill="#8643DC"/>
<path d="M699.089 210.47C699.499 210.47 699.831 210.138 699.831 209.729C699.831 209.319 699.499 208.987 699.089 208.987C698.68 208.987 698.348 209.319 698.348 209.729C698.348 210.138 698.68 210.47 699.089 210.47Z" fill="#8643DC"/>
<path d="M695.383 214.176C695.793 214.176 696.124 213.844 696.124 213.435C696.124 213.025 695.793 212.693 695.383 212.693C694.974 212.693 694.642 213.025 694.642 213.435C694.642 213.844 694.974 214.176 695.383 214.176Z" fill="#8643DC"/>
<path d="M691.492 217.882C691.901 217.882 692.233 217.55 692.233 217.141C692.233 216.731 691.901 216.399 691.492 216.399C691.082 216.399 690.751 216.731 690.751 217.141C690.751 217.55 691.082 217.882 691.492 217.882Z" fill="#8643DC"/>
<path d="M687.786 221.588C688.195 221.588 688.527 221.256 688.527 220.847C688.527 220.437 688.195 220.105 687.786 220.105C687.377 220.105 687.045 220.437 687.045 220.847C687.045 221.256 687.377 221.588 687.786 221.588Z" fill="#8643DC"/>
<path d="M683.895 225.294C684.304 225.294 684.636 224.962 684.636 224.553C684.636 224.143 684.304 223.812 683.895 223.812C683.485 223.812 683.153 224.143 683.153 224.553C683.153 224.962 683.485 225.294 683.895 225.294Z" fill="#8643DC"/>
<path d="M680.188 229C680.598 229 680.93 228.668 680.93 228.259C680.93 227.849 680.598 227.518 680.188 227.518C679.779 227.518 679.447 227.849 679.447 228.259C679.447 228.668 679.779 229 680.188 229Z" fill="#8643DC"/>
<path d="M737.818 181.562C738.227 181.562 738.559 181.23 738.559 180.821C738.559 180.412 738.227 180.08 737.818 180.08C737.409 180.08 737.077 180.412 737.077 180.821C737.077 181.23 737.409 181.562 737.818 181.562Z" fill="#8643DC"/>
<path d="M733.927 185.268C734.336 185.268 734.668 184.936 734.668 184.527C734.668 184.118 734.336 183.786 733.927 183.786C733.517 183.786 733.185 184.118 733.185 184.527C733.185 184.936 733.517 185.268 733.927 185.268Z" fill="#8643DC"/>
<path d="M730.221 188.974C730.63 188.974 730.962 188.643 730.962 188.233C730.962 187.824 730.63 187.492 730.221 187.492C729.811 187.492 729.479 187.824 729.479 188.233C729.479 188.643 729.811 188.974 730.221 188.974Z" fill="#8643DC"/>
<path d="M726.329 192.68C726.738 192.68 727.07 192.349 727.07 191.939C727.07 191.53 726.738 191.198 726.329 191.198C725.92 191.198 725.588 191.53 725.588 191.939C725.588 192.349 725.92 192.68 726.329 192.68Z" fill="#8643DC"/>
<path d="M722.623 196.386C723.032 196.386 723.364 196.055 723.364 195.645C723.364 195.236 723.032 194.904 722.623 194.904C722.214 194.904 721.882 195.236 721.882 195.645C721.882 196.055 722.214 196.386 722.623 196.386Z" fill="#8643DC"/>
<path d="M718.732 200.093C719.141 200.093 719.473 199.761 719.473 199.352C719.473 198.942 719.141 198.61 718.732 198.61C718.322 198.61 717.99 198.942 717.99 199.352C717.99 199.761 718.322 200.093 718.732 200.093Z" fill="#8643DC"/>
<path d="M715.026 203.799C715.435 203.799 715.767 203.467 715.767 203.058C715.767 202.648 715.435 202.316 715.026 202.316C714.616 202.316 714.284 202.648 714.284 203.058C714.284 203.467 714.616 203.799 715.026 203.799Z" fill="#8643DC"/>
<path d="M711.134 207.505C711.544 207.505 711.876 207.173 711.876 206.764C711.876 206.354 711.544 206.022 711.134 206.022C710.725 206.022 710.393 206.354 710.393 206.764C710.393 207.173 710.725 207.505 711.134 207.505Z" fill="#8643DC"/>
<path d="M707.243 211.211C707.652 211.211 707.984 210.879 707.984 210.47C707.984 210.06 707.652 209.729 707.243 209.729C706.834 209.729 706.502 210.06 706.502 210.47C706.502 210.879 706.834 211.211 707.243 211.211Z" fill="#8643DC"/>
<path d="M703.537 214.917C703.946 214.917 704.278 214.585 704.278 214.176C704.278 213.766 703.946 213.435 703.537 213.435C703.128 213.435 702.796 213.766 702.796 214.176C702.796 214.585 703.128 214.917 703.537 214.917Z" fill="#8643DC"/>
<path d="M699.645 218.623C700.055 218.623 700.387 218.291 700.387 217.882C700.387 217.472 700.055 217.141 699.645 217.141C699.236 217.141 698.904 217.472 698.904 217.882C698.904 218.291 699.236 218.623 699.645 218.623Z" fill="#8643DC"/>
<path d="M695.939 222.329C696.349 222.329 696.681 221.997 696.681 221.588C696.681 221.179 696.349 220.847 695.939 220.847C695.53 220.847 695.198 221.179 695.198 221.588C695.198 221.997 695.53 222.329 695.939 222.329Z" fill="#8643DC"/>
<path d="M692.048 226.035C692.457 226.035 692.789 225.703 692.789 225.294C692.789 224.885 692.457 224.553 692.048 224.553C691.639 224.553 691.307 224.885 691.307 225.294C691.307 225.703 691.639 226.035 692.048 226.035Z" fill="#8643DC"/>
<path d="M688.342 229.741C688.751 229.741 689.083 229.409 689.083 229C689.083 228.591 688.751 228.259 688.342 228.259C687.933 228.259 687.601 228.591 687.601 229C687.601 229.409 687.933 229.741 688.342 229.741Z" fill="#8643DC"/>
<path d="M684.45 233.447C684.86 233.447 685.192 233.115 685.192 232.706C685.192 232.297 684.86 231.965 684.45 231.965C684.041 231.965 683.709 232.297 683.709 232.706C683.709 233.115 684.041 233.447 684.45 233.447Z" fill="#8643DC"/>
<path d="M742.08 186.01C742.489 186.01 742.821 185.678 742.821 185.268C742.821 184.859 742.489 184.527 742.08 184.527C741.67 184.527 741.339 184.859 741.339 185.268C741.339 185.678 741.67 186.01 742.08 186.01Z" fill="#8643DC"/>
<path d="M738.374 189.716C738.783 189.716 739.115 189.384 739.115 188.974C739.115 188.565 738.783 188.233 738.374 188.233C737.964 188.233 737.633 188.565 737.633 188.974C737.633 189.384 737.964 189.716 738.374 189.716Z" fill="#8643DC"/>
<path d="M734.483 193.422C734.892 193.422 735.224 193.09 735.224 192.68C735.224 192.271 734.892 191.939 734.483 191.939C734.073 191.939 733.741 192.271 733.741 192.68C733.741 193.09 734.073 193.422 734.483 193.422Z" fill="#8643DC"/>
<path d="M730.776 197.128C731.186 197.128 731.518 196.796 731.518 196.386C731.518 195.977 731.186 195.645 730.776 195.645C730.367 195.645 730.035 195.977 730.035 196.386C730.035 196.796 730.367 197.128 730.776 197.128Z" fill="#8643DC"/>
<path d="M726.885 200.834C727.294 200.834 727.626 200.502 727.626 200.093C727.626 199.683 727.294 199.351 726.885 199.351C726.476 199.351 726.144 199.683 726.144 200.093C726.144 200.502 726.476 200.834 726.885 200.834Z" fill="#8643DC"/>
<path d="M723.179 204.54C723.588 204.54 723.92 204.208 723.92 203.799C723.92 203.389 723.588 203.058 723.179 203.058C722.77 203.058 722.438 203.389 722.438 203.799C722.438 204.208 722.77 204.54 723.179 204.54Z" fill="#8643DC"/>
<path d="M719.288 208.246C719.697 208.246 720.029 207.914 720.029 207.505C720.029 207.096 719.697 206.764 719.288 206.764C718.878 206.764 718.546 207.096 718.546 207.505C718.546 207.914 718.878 208.246 719.288 208.246Z" fill="#8643DC"/>
<path d="M715.581 211.952C715.991 211.952 716.323 211.62 716.323 211.211C716.323 210.802 715.991 210.47 715.581 210.47C715.172 210.47 714.84 210.802 714.84 211.211C714.84 211.62 715.172 211.952 715.581 211.952Z" fill="#8643DC"/>
<path d="M711.69 215.658C712.099 215.658 712.431 215.326 712.431 214.917C712.431 214.508 712.099 214.176 711.69 214.176C711.281 214.176 710.949 214.508 710.949 214.917C710.949 215.326 711.281 215.658 711.69 215.658Z" fill="#8643DC"/>
<path d="M707.984 219.364C708.393 219.364 708.725 219.032 708.725 218.623C708.725 218.214 708.393 217.882 707.984 217.882C707.575 217.882 707.243 218.214 707.243 218.623C707.243 219.032 707.575 219.364 707.984 219.364Z" fill="#8643DC"/>
<path d="M704.093 223.07C704.502 223.07 704.834 222.738 704.834 222.329C704.834 221.92 704.502 221.588 704.093 221.588C703.683 221.588 703.351 221.92 703.351 222.329C703.351 222.738 703.683 223.07 704.093 223.07Z" fill="#8643DC"/>
<path d="M700.386 226.776C700.796 226.776 701.128 226.445 701.128 226.035C701.128 225.626 700.796 225.294 700.386 225.294C699.977 225.294 699.645 225.626 699.645 226.035C699.645 226.445 699.977 226.776 700.386 226.776Z" fill="#8643DC"/>
<path d="M696.495 230.482C696.905 230.482 697.236 230.151 697.236 229.741C697.236 229.332 696.905 229 696.495 229C696.086 229 695.754 229.332 695.754 229.741C695.754 230.151 696.086 230.482 696.495 230.482Z" fill="#8643DC"/>
<path d="M692.789 234.189C693.199 234.189 693.53 233.857 693.53 233.447C693.53 233.038 693.199 232.706 692.789 232.706C692.38 232.706 692.048 233.038 692.048 233.447C692.048 233.857 692.38 234.189 692.789 234.189Z" fill="#8643DC"/>
<path d="M688.898 238.08C689.307 238.08 689.639 237.748 689.639 237.339C689.639 236.929 689.307 236.597 688.898 236.597C688.488 236.597 688.156 236.929 688.156 237.339C688.156 237.748 688.488 238.08 688.898 238.08Z" fill="#8643DC"/>
<path d="M746.527 190.457C746.937 190.457 747.268 190.125 747.268 189.716C747.268 189.306 746.937 188.974 746.527 188.974C746.118 188.974 745.786 189.306 745.786 189.716C745.786 190.125 746.118 190.457 746.527 190.457Z" fill="#8643DC"/>
<path d="M742.636 194.163C743.045 194.163 743.377 193.831 743.377 193.422C743.377 193.012 743.045 192.68 742.636 192.68C742.226 192.68 741.895 193.012 741.895 193.422C741.895 193.831 742.226 194.163 742.636 194.163Z" fill="#8643DC"/>
<path d="M738.93 197.869C739.339 197.869 739.671 197.537 739.671 197.128C739.671 196.718 739.339 196.386 738.93 196.386C738.52 196.386 738.188 196.718 738.188 197.128C738.188 197.537 738.52 197.869 738.93 197.869Z" fill="#8643DC"/>
<path d="M735.038 201.575C735.448 201.575 735.78 201.243 735.78 200.834C735.78 200.424 735.448 200.093 735.038 200.093C734.629 200.093 734.297 200.424 734.297 200.834C734.297 201.243 734.629 201.575 735.038 201.575Z" fill="#8643DC"/>
<path d="M731.332 205.281C731.742 205.281 732.073 204.949 732.073 204.54C732.073 204.131 731.742 203.799 731.332 203.799C730.923 203.799 730.591 204.131 730.591 204.54C730.591 204.949 730.923 205.281 731.332 205.281Z" fill="#8643DC"/>
<path d="M727.441 208.987C727.85 208.987 728.182 208.656 728.182 208.246C728.182 207.837 727.85 207.505 727.441 207.505C727.031 207.505 726.7 207.837 726.7 208.246C726.7 208.656 727.031 208.987 727.441 208.987Z" fill="#8643DC"/>
<path d="M723.735 212.693C724.144 212.693 724.476 212.362 724.476 211.952C724.476 211.543 724.144 211.211 723.735 211.211C723.325 211.211 722.994 211.543 722.994 211.952C722.994 212.362 723.325 212.693 723.735 212.693Z" fill="#8643DC"/>
<path d="M719.843 216.399C720.253 216.399 720.585 216.068 720.585 215.658C720.585 215.249 720.253 214.917 719.843 214.917C719.434 214.917 719.102 215.249 719.102 215.658C719.102 216.068 719.434 216.399 719.843 216.399Z" fill="#8643DC"/>
<path d="M716.137 220.106C716.547 220.106 716.879 219.774 716.879 219.364C716.879 218.955 716.547 218.623 716.137 218.623C715.728 218.623 715.396 218.955 715.396 219.364C715.396 219.774 715.728 220.106 716.137 220.106Z" fill="#8643DC"/>
<path d="M712.246 223.812C712.655 223.812 712.987 223.48 712.987 223.07C712.987 222.661 712.655 222.329 712.246 222.329C711.837 222.329 711.505 222.661 711.505 223.07C711.505 223.48 711.837 223.812 712.246 223.812Z" fill="#8643DC"/>
<path d="M708.54 227.518C708.949 227.518 709.281 227.186 709.281 226.776C709.281 226.367 708.949 226.035 708.54 226.035C708.131 226.035 707.799 226.367 707.799 226.776C707.799 227.186 708.131 227.518 708.54 227.518Z" fill="#8643DC"/>
<path d="M704.649 231.224C705.058 231.224 705.39 230.892 705.39 230.482C705.39 230.073 705.058 229.741 704.649 229.741C704.239 229.741 703.907 230.073 703.907 230.482C703.907 230.892 704.239 231.224 704.649 231.224Z" fill="#8643DC"/>
<path d="M700.942 235.115C701.352 235.115 701.684 234.783 701.684 234.374C701.684 233.964 701.352 233.633 700.942 233.633C700.533 233.633 700.201 233.964 700.201 234.374C700.201 234.783 700.533 235.115 700.942 235.115Z" fill="#8643DC"/>
<path d="M697.051 238.821C697.46 238.821 697.792 238.489 697.792 238.08C697.792 237.67 697.46 237.339 697.051 237.339C696.642 237.339 696.31 237.67 696.31 238.08C696.31 238.489 696.642 238.821 697.051 238.821Z" fill="#8643DC"/>
<path d="M693.345 242.527C693.754 242.527 694.086 242.195 694.086 241.786C694.086 241.377 693.754 241.045 693.345 241.045C692.936 241.045 692.604 241.377 692.604 241.786C692.604 242.195 692.936 242.527 693.345 242.527Z" fill="#8643DC"/>
<path d="M750.974 194.904C751.384 194.904 751.716 194.572 751.716 194.163C751.716 193.754 751.384 193.422 750.974 193.422C750.565 193.422 750.233 193.754 750.233 194.163C750.233 194.572 750.565 194.904 750.974 194.904Z" fill="#8643DC"/>
<path d="M747.083 198.61C747.492 198.61 747.824 198.278 747.824 197.869C747.824 197.46 747.492 197.128 747.083 197.128C746.674 197.128 746.342 197.46 746.342 197.869C746.342 198.278 746.674 198.61 747.083 198.61Z" fill="#8643DC"/>
<path d="M743.377 202.316C743.786 202.316 744.118 201.985 744.118 201.575C744.118 201.166 743.786 200.834 743.377 200.834C742.968 200.834 742.636 201.166 742.636 201.575C742.636 201.985 742.968 202.316 743.377 202.316Z" fill="#8643DC"/>
<path d="M739.486 206.022C739.895 206.022 740.227 205.691 740.227 205.281C740.227 204.872 739.895 204.54 739.486 204.54C739.076 204.54 738.744 204.872 738.744 205.281C738.744 205.691 739.076 206.022 739.486 206.022Z" fill="#8643DC"/>
<path d="M735.594 209.728C736.004 209.728 736.335 209.397 736.335 208.987C736.335 208.578 736.004 208.246 735.594 208.246C735.185 208.246 734.853 208.578 734.853 208.987C734.853 209.397 735.185 209.728 735.594 209.728Z" fill="#8643DC"/>
<path d="M731.888 213.435C732.298 213.435 732.629 213.103 732.629 212.693C732.629 212.284 732.298 211.952 731.888 211.952C731.479 211.952 731.147 212.284 731.147 212.693C731.147 213.103 731.479 213.435 731.888 213.435Z" fill="#8643DC"/>
<path d="M727.997 217.141C728.406 217.141 728.738 216.809 728.738 216.399C728.738 215.99 728.406 215.658 727.997 215.658C727.587 215.658 727.256 215.99 727.256 216.399C727.256 216.809 727.587 217.141 727.997 217.141Z" fill="#8643DC"/>
<path d="M724.291 220.847C724.7 220.847 725.032 220.515 725.032 220.105C725.032 219.696 724.7 219.364 724.291 219.364C723.881 219.364 723.55 219.696 723.55 220.105C723.55 220.515 723.881 220.847 724.291 220.847Z" fill="#8643DC"/>
<path d="M720.399 224.553C720.809 224.553 721.141 224.221 721.141 223.812C721.141 223.402 720.809 223.07 720.399 223.07C719.99 223.07 719.658 223.402 719.658 223.812C719.658 224.221 719.99 224.553 720.399 224.553Z" fill="#8643DC"/>
<path d="M716.693 228.259C717.103 228.259 717.434 227.927 717.434 227.518C717.434 227.108 717.103 226.776 716.693 226.776C716.284 226.776 715.952 227.108 715.952 227.518C715.952 227.927 716.284 228.259 716.693 228.259Z" fill="#8643DC"/>
<path d="M712.802 232.15C713.211 232.15 713.543 231.818 713.543 231.409C713.543 231 713.211 230.668 712.802 230.668C712.393 230.668 712.061 231 712.061 231.409C712.061 231.818 712.393 232.15 712.802 232.15Z" fill="#8643DC"/>
<path d="M709.096 235.856C709.505 235.856 709.837 235.524 709.837 235.115C709.837 234.706 709.505 234.374 709.096 234.374C708.686 234.374 708.355 234.706 708.355 235.115C708.355 235.524 708.686 235.856 709.096 235.856Z" fill="#8643DC"/>
<path d="M705.204 239.562C705.614 239.562 705.946 239.23 705.946 238.821C705.946 238.412 705.614 238.08 705.204 238.08C704.795 238.08 704.463 238.412 704.463 238.821C704.463 239.23 704.795 239.562 705.204 239.562Z" fill="#8643DC"/>
<path d="M701.498 243.268C701.908 243.268 702.239 242.937 702.239 242.527C702.239 242.118 701.908 241.786 701.498 241.786C701.089 241.786 700.757 242.118 700.757 242.527C700.757 242.937 701.089 243.268 701.498 243.268Z" fill="#8643DC"/>
<path d="M697.607 246.974C698.016 246.974 698.348 246.643 698.348 246.233C698.348 245.824 698.016 245.492 697.607 245.492C697.198 245.492 696.866 245.824 696.866 246.233C696.866 246.643 697.198 246.974 697.607 246.974Z" fill="#8643DC"/>
<path d="M755.236 199.352C755.646 199.352 755.978 199.02 755.978 198.61C755.978 198.201 755.646 197.869 755.236 197.869C754.827 197.869 754.495 198.201 754.495 198.61C754.495 199.02 754.827 199.352 755.236 199.352Z" fill="#8643DC"/>
<path d="M751.531 203.058C751.94 203.058 752.272 202.726 752.272 202.316C752.272 201.907 751.94 201.575 751.531 201.575C751.121 201.575 750.789 201.907 750.789 202.316C750.789 202.726 751.121 203.058 751.531 203.058Z" fill="#8643DC"/>
<path d="M747.639 206.764C748.048 206.764 748.38 206.432 748.38 206.022C748.38 205.613 748.048 205.281 747.639 205.281C747.23 205.281 746.898 205.613 746.898 206.022C746.898 206.432 747.23 206.764 747.639 206.764Z" fill="#8643DC"/>
<path d="M743.933 210.47C744.342 210.47 744.674 210.138 744.674 209.729C744.674 209.319 744.342 208.987 743.933 208.987C743.523 208.987 743.192 209.319 743.192 209.729C743.192 210.138 743.523 210.47 743.933 210.47Z" fill="#8643DC"/>
<path d="M740.042 214.176C740.451 214.176 740.783 213.844 740.783 213.435C740.783 213.025 740.451 212.693 740.042 212.693C739.632 212.693 739.3 213.025 739.3 213.435C739.3 213.844 739.632 214.176 740.042 214.176Z" fill="#8643DC"/>
<path d="M736.335 217.882C736.745 217.882 737.077 217.55 737.077 217.141C737.077 216.731 736.745 216.399 736.335 216.399C735.926 216.399 735.594 216.731 735.594 217.141C735.594 217.55 735.926 217.882 736.335 217.882Z" fill="#8643DC"/>
<path d="M732.444 221.588C732.854 221.588 733.185 221.256 733.185 220.847C733.185 220.437 732.854 220.105 732.444 220.105C732.035 220.105 731.703 220.437 731.703 220.847C731.703 221.256 732.035 221.588 732.444 221.588Z" fill="#8643DC"/>
<path d="M728.738 225.294C729.148 225.294 729.479 224.962 729.479 224.553C729.479 224.143 729.148 223.812 728.738 223.812C728.329 223.812 727.997 224.143 727.997 224.553C727.997 224.962 728.329 225.294 728.738 225.294Z" fill="#8643DC"/>
<path d="M724.847 229C725.256 229 725.588 228.668 725.588 228.259C725.588 227.849 725.256 227.518 724.847 227.518C724.437 227.518 724.106 227.849 724.106 228.259C724.106 228.668 724.437 229 724.847 229Z" fill="#8643DC"/>
<path d="M720.955 232.891C721.365 232.891 721.697 232.559 721.697 232.15C721.697 231.741 721.365 231.409 720.955 231.409C720.546 231.409 720.214 231.741 720.214 232.15C720.214 232.559 720.546 232.891 720.955 232.891Z" fill="#8643DC"/>
<path d="M717.249 236.597C717.659 236.597 717.99 236.266 717.99 235.856C717.99 235.447 717.659 235.115 717.249 235.115C716.84 235.115 716.508 235.447 716.508 235.856C716.508 236.266 716.84 236.597 717.249 236.597Z" fill="#8643DC"/>
<path d="M713.358 240.303C713.767 240.303 714.099 239.972 714.099 239.562C714.099 239.153 713.767 238.821 713.358 238.821C712.948 238.821 712.617 239.153 712.617 239.562C712.617 239.972 712.948 240.303 713.358 240.303Z" fill="#8643DC"/>
<path d="M709.652 244.01C710.061 244.01 710.393 243.678 710.393 243.269C710.393 242.859 710.061 242.527 709.652 242.527C709.242 242.527 708.911 242.859 708.911 243.269C708.911 243.678 709.242 244.01 709.652 244.01Z" fill="#8643DC"/>
<path d="M705.76 247.716C706.17 247.716 706.502 247.384 706.502 246.975C706.502 246.565 706.17 246.233 705.76 246.233C705.351 246.233 705.019 246.565 705.019 246.975C705.019 247.384 705.351 247.716 705.76 247.716Z" fill="#8643DC"/>
<path d="M702.054 251.422C702.464 251.422 702.796 251.09 702.796 250.681C702.796 250.271 702.464 249.939 702.054 249.939C701.645 249.939 701.313 250.271 701.313 250.681C701.313 251.09 701.645 251.422 702.054 251.422Z" fill="#8643DC"/>
<path d="M759.684 203.799C760.093 203.799 760.425 203.467 760.425 203.058C760.425 202.648 760.093 202.316 759.684 202.316C759.274 202.316 758.943 202.648 758.943 203.058C758.943 203.467 759.274 203.799 759.684 203.799Z" fill="#8643DC"/>
<path d="M755.792 207.505C756.202 207.505 756.534 207.173 756.534 206.764C756.534 206.354 756.202 206.022 755.792 206.022C755.383 206.022 755.051 206.354 755.051 206.764C755.051 207.173 755.383 207.505 755.792 207.505Z" fill="#8643DC"/>
<path d="M752.086 211.211C752.496 211.211 752.828 210.879 752.828 210.47C752.828 210.06 752.496 209.729 752.086 209.729C751.677 209.729 751.345 210.06 751.345 210.47C751.345 210.879 751.677 211.211 752.086 211.211Z" fill="#8643DC"/>
<path d="M748.195 214.917C748.604 214.917 748.936 214.585 748.936 214.176C748.936 213.766 748.604 213.435 748.195 213.435C747.786 213.435 747.454 213.766 747.454 214.176C747.454 214.585 747.786 214.917 748.195 214.917Z" fill="#8643DC"/>
<path d="M744.489 218.623C744.898 218.623 745.23 218.291 745.23 217.882C745.23 217.472 744.898 217.141 744.489 217.141C744.079 217.141 743.748 217.472 743.748 217.882C743.748 218.291 744.079 218.623 744.489 218.623Z" fill="#8643DC"/>
<path d="M740.598 222.329C741.007 222.329 741.339 221.997 741.339 221.588C741.339 221.179 741.007 220.847 740.598 220.847C740.188 220.847 739.856 221.179 739.856 221.588C739.856 221.997 740.188 222.329 740.598 222.329Z" fill="#8643DC"/>
<path d="M736.891 226.035C737.301 226.035 737.633 225.703 737.633 225.294C737.633 224.885 737.301 224.553 736.891 224.553C736.482 224.553 736.15 224.885 736.15 225.294C736.15 225.703 736.482 226.035 736.891 226.035Z" fill="#8643DC"/>
<path d="M733 229.926C733.409 229.926 733.741 229.595 733.741 229.185C733.741 228.776 733.409 228.444 733 228.444C732.591 228.444 732.259 228.776 732.259 229.185C732.259 229.595 732.591 229.926 733 229.926Z" fill="#8643DC"/>
<path d="M729.294 233.633C729.703 233.633 730.035 233.301 730.035 232.891C730.035 232.482 729.703 232.15 729.294 232.15C728.885 232.15 728.553 232.482 728.553 232.891C728.553 233.301 728.885 233.633 729.294 233.633Z" fill="#8643DC"/>
<path d="M725.403 237.339C725.812 237.339 726.144 237.007 726.144 236.597C726.144 236.188 725.812 235.856 725.403 235.856C724.993 235.856 724.661 236.188 724.661 236.597C724.661 237.007 724.993 237.339 725.403 237.339Z" fill="#8643DC"/>
<path d="M721.696 241.045C722.106 241.045 722.438 240.713 722.438 240.303C722.438 239.894 722.106 239.562 721.696 239.562C721.287 239.562 720.955 239.894 720.955 240.303C720.955 240.713 721.287 241.045 721.696 241.045Z" fill="#8643DC"/>
<path d="M717.805 244.751C718.215 244.751 718.546 244.419 718.546 244.01C718.546 243.6 718.215 243.268 717.805 243.268C717.396 243.268 717.064 243.6 717.064 244.01C717.064 244.419 717.396 244.751 717.805 244.751Z" fill="#8643DC"/>
<path d="M714.099 248.457C714.508 248.457 714.84 248.125 714.84 247.716C714.84 247.306 714.508 246.975 714.099 246.975C713.69 246.975 713.358 247.306 713.358 247.716C713.358 248.125 713.69 248.457 714.099 248.457Z" fill="#8643DC"/>
<path d="M710.208 252.163C710.617 252.163 710.949 251.831 710.949 251.422C710.949 251.013 710.617 250.681 710.208 250.681C709.798 250.681 709.466 251.013 709.466 251.422C709.466 251.831 709.798 252.163 710.208 252.163Z" fill="#8643DC"/>
<path d="M706.502 255.869C706.911 255.869 707.243 255.537 707.243 255.128C707.243 254.719 706.911 254.387 706.502 254.387C706.092 254.387 705.76 254.719 705.76 255.128C705.76 255.537 706.092 255.869 706.502 255.869Z" fill="#8643DC"/>
<path d="M763.945 208.246C764.355 208.246 764.687 207.914 764.687 207.505C764.687 207.096 764.355 206.764 763.945 206.764C763.536 206.764 763.204 207.096 763.204 207.505C763.204 207.914 763.536 208.246 763.945 208.246Z" fill="#8643DC"/>
<path d="M760.239 211.952C760.649 211.952 760.981 211.62 760.981 211.211C760.981 210.802 760.649 210.47 760.239 210.47C759.83 210.47 759.498 210.802 759.498 211.211C759.498 211.62 759.83 211.952 760.239 211.952Z" fill="#8643DC"/>
<path d="M756.348 215.658C756.757 215.658 757.089 215.326 757.089 214.917C757.089 214.508 756.757 214.176 756.348 214.176C755.939 214.176 755.607 214.508 755.607 214.917C755.607 215.326 755.939 215.658 756.348 215.658Z" fill="#8643DC"/>
<path d="M752.642 219.364C753.051 219.364 753.383 219.032 753.383 218.623C753.383 218.214 753.051 217.882 752.642 217.882C752.233 217.882 751.901 218.214 751.901 218.623C751.901 219.032 752.233 219.364 752.642 219.364Z" fill="#8643DC"/>
<path d="M748.751 223.07C749.16 223.07 749.492 222.738 749.492 222.329C749.492 221.92 749.16 221.588 748.751 221.588C748.341 221.588 748.01 221.92 748.01 222.329C748.01 222.738 748.341 223.07 748.751 223.07Z" fill="#8643DC"/>
<path d="M745.045 226.962C745.454 226.962 745.786 226.63 745.786 226.22C745.786 225.811 745.454 225.479 745.045 225.479C744.635 225.479 744.303 225.811 744.303 226.22C744.303 226.63 744.635 226.962 745.045 226.962Z" fill="#8643DC"/>
<path d="M741.153 230.668C741.563 230.668 741.895 230.336 741.895 229.927C741.895 229.517 741.563 229.185 741.153 229.185C740.744 229.185 740.412 229.517 740.412 229.927C740.412 230.336 740.744 230.668 741.153 230.668Z" fill="#8643DC"/>
<path d="M737.447 234.374C737.857 234.374 738.188 234.042 738.188 233.633C738.188 233.223 737.857 232.891 737.447 232.891C737.038 232.891 736.706 233.223 736.706 233.633C736.706 234.042 737.038 234.374 737.447 234.374Z" fill="#8643DC"/>
<path d="M733.556 238.08C733.965 238.08 734.297 237.748 734.297 237.339C734.297 236.929 733.965 236.597 733.556 236.597C733.146 236.597 732.815 236.929 732.815 237.339C732.815 237.748 733.146 238.08 733.556 238.08Z" fill="#8643DC"/>
<path d="M729.85 241.786C730.259 241.786 730.591 241.454 730.591 241.045C730.591 240.635 730.259 240.303 729.85 240.303C729.44 240.303 729.109 240.635 729.109 241.045C729.109 241.454 729.44 241.786 729.85 241.786Z" fill="#8643DC"/>
<path d="M725.958 245.492C726.368 245.492 726.7 245.16 726.7 244.751C726.7 244.341 726.368 244.01 725.958 244.01C725.549 244.01 725.217 244.341 725.217 244.751C725.217 245.16 725.549 245.492 725.958 245.492Z" fill="#8643DC"/>
<path d="M722.252 249.198C722.662 249.198 722.993 248.866 722.993 248.457C722.993 248.047 722.662 247.716 722.252 247.716C721.843 247.716 721.511 248.047 721.511 248.457C721.511 248.866 721.843 249.198 722.252 249.198Z" fill="#8643DC"/>
<path d="M718.361 252.904C718.77 252.904 719.102 252.572 719.102 252.163C719.102 251.754 718.77 251.422 718.361 251.422C717.951 251.422 717.62 251.754 717.62 252.163C717.62 252.572 717.951 252.904 718.361 252.904Z" fill="#8643DC"/>
<path d="M714.655 256.61C715.064 256.61 715.396 256.278 715.396 255.869C715.396 255.46 715.064 255.128 714.655 255.128C714.246 255.128 713.914 255.46 713.914 255.869C713.914 256.278 714.246 256.61 714.655 256.61Z" fill="#8643DC"/>
<path d="M710.763 260.316C711.173 260.316 711.505 259.985 711.505 259.575C711.505 259.166 711.173 258.834 710.763 258.834C710.354 258.834 710.022 259.166 710.022 259.575C710.022 259.985 710.354 260.316 710.763 260.316Z" fill="#8643DC"/>
<path d="M768.393 212.693C768.802 212.693 769.134 212.362 769.134 211.952C769.134 211.543 768.802 211.211 768.393 211.211C767.984 211.211 767.652 211.543 767.652 211.952C767.652 212.362 767.984 212.693 768.393 212.693Z" fill="#8643DC"/>
<path d="M764.687 216.399C765.096 216.399 765.428 216.068 765.428 215.658C765.428 215.249 765.096 214.917 764.687 214.917C764.278 214.917 763.946 215.249 763.946 215.658C763.946 216.068 764.278 216.399 764.687 216.399Z" fill="#8643DC"/>
<path d="M760.796 220.106C761.205 220.106 761.537 219.774 761.537 219.364C761.537 218.955 761.205 218.623 760.796 218.623C760.386 218.623 760.054 218.955 760.054 219.364C760.054 219.774 760.386 220.106 760.796 220.106Z" fill="#8643DC"/>
<path d="M757.089 223.997C757.499 223.997 757.831 223.665 757.831 223.256C757.831 222.846 757.499 222.514 757.089 222.514C756.68 222.514 756.348 222.846 756.348 223.256C756.348 223.665 756.68 223.997 757.089 223.997Z" fill="#8643DC"/>
<path d="M753.198 227.703C753.607 227.703 753.939 227.371 753.939 226.962C753.939 226.552 753.607 226.22 753.198 226.22C752.789 226.22 752.457 226.552 752.457 226.962C752.457 227.371 752.789 227.703 753.198 227.703Z" fill="#8643DC"/>
<path d="M749.307 231.409C749.716 231.409 750.048 231.077 750.048 230.668C750.048 230.258 749.716 229.927 749.307 229.927C748.897 229.927 748.566 230.258 748.566 230.668C748.566 231.077 748.897 231.409 749.307 231.409Z" fill="#8643DC"/>
<path d="M745.601 235.115C746.01 235.115 746.342 234.783 746.342 234.374C746.342 233.964 746.01 233.633 745.601 233.633C745.191 233.633 744.859 233.964 744.859 234.374C744.859 234.783 745.191 235.115 745.601 235.115Z" fill="#8643DC"/>
<path d="M741.709 238.821C742.119 238.821 742.45 238.489 742.45 238.08C742.45 237.67 742.119 237.339 741.709 237.339C741.3 237.339 740.968 237.67 740.968 238.08C740.968 238.489 741.3 238.821 741.709 238.821Z" fill="#8643DC"/>
<path d="M738.003 242.527C738.413 242.527 738.744 242.195 738.744 241.786C738.744 241.377 738.413 241.045 738.003 241.045C737.594 241.045 737.262 241.377 737.262 241.786C737.262 242.195 737.594 242.527 738.003 242.527Z" fill="#8643DC"/>
<path d="M734.112 246.233C734.521 246.233 734.853 245.901 734.853 245.492C734.853 245.083 734.521 244.751 734.112 244.751C733.702 244.751 733.371 245.083 733.371 245.492C733.371 245.901 733.702 246.233 734.112 246.233Z" fill="#8643DC"/>
<path d="M730.406 249.939C730.815 249.939 731.147 249.607 731.147 249.198C731.147 248.789 730.815 248.457 730.406 248.457C729.997 248.457 729.665 248.789 729.665 249.198C729.665 249.607 729.997 249.939 730.406 249.939Z" fill="#8643DC"/>
<path d="M726.514 253.646C726.924 253.646 727.255 253.314 727.255 252.904C727.255 252.495 726.924 252.163 726.514 252.163C726.105 252.163 725.773 252.495 725.773 252.904C725.773 253.314 726.105 253.646 726.514 253.646Z" fill="#8643DC"/>
<path d="M722.808 257.352C723.218 257.352 723.549 257.02 723.549 256.61C723.549 256.201 723.218 255.869 722.808 255.869C722.399 255.869 722.067 256.201 722.067 256.61C722.067 257.02 722.399 257.352 722.808 257.352Z" fill="#8643DC"/>
<path d="M718.917 261.058C719.326 261.058 719.658 260.726 719.658 260.316C719.658 259.907 719.326 259.575 718.917 259.575C718.508 259.575 718.176 259.907 718.176 260.316C718.176 260.726 718.508 261.058 718.917 261.058Z" fill="#8643DC"/>
<path d="M715.211 264.764C715.62 264.764 715.952 264.432 715.952 264.022C715.952 263.613 715.62 263.281 715.211 263.281C714.802 263.281 714.47 263.613 714.47 264.022C714.47 264.432 714.802 264.764 715.211 264.764Z" fill="#8643DC"/>
<path d="M772.84 217.141C773.25 217.141 773.581 216.809 773.581 216.399C773.581 215.99 773.25 215.658 772.84 215.658C772.431 215.658 772.099 215.99 772.099 216.399C772.099 216.809 772.431 217.141 772.84 217.141Z" fill="#8643DC"/>
<path d="M768.949 221.032C769.358 221.032 769.69 220.7 769.69 220.291C769.69 219.881 769.358 219.55 768.949 219.55C768.539 219.55 768.208 219.881 768.208 220.291C768.208 220.7 768.539 221.032 768.949 221.032Z" fill="#8643DC"/>
<path d="M765.243 224.738C765.652 224.738 765.984 224.406 765.984 223.997C765.984 223.588 765.652 223.256 765.243 223.256C764.833 223.256 764.502 223.588 764.502 223.997C764.502 224.406 764.833 224.738 765.243 224.738Z" fill="#8643DC"/>
<path d="M761.352 228.444C761.761 228.444 762.093 228.112 762.093 227.703C762.093 227.294 761.761 226.962 761.352 226.962C760.942 226.962 760.61 227.294 760.61 227.703C760.61 228.112 760.942 228.444 761.352 228.444Z" fill="#8643DC"/>
<path d="M757.645 232.15C758.055 232.15 758.387 231.818 758.387 231.409C758.387 231 758.055 230.668 757.645 230.668C757.236 230.668 756.904 231 756.904 231.409C756.904 231.818 757.236 232.15 757.645 232.15Z" fill="#8643DC"/>
<path d="M753.754 235.856C754.163 235.856 754.495 235.524 754.495 235.115C754.495 234.706 754.163 234.374 753.754 234.374C753.345 234.374 753.013 234.706 753.013 235.115C753.013 235.524 753.345 235.856 753.754 235.856Z" fill="#8643DC"/>
<path d="M750.048 239.562C750.457 239.562 750.789 239.23 750.789 238.821C750.789 238.412 750.457 238.08 750.048 238.08C749.639 238.08 749.307 238.412 749.307 238.821C749.307 239.23 749.639 239.562 750.048 239.562Z" fill="#8643DC"/>
<path d="M746.157 243.268C746.566 243.268 746.898 242.937 746.898 242.527C746.898 242.118 746.566 241.786 746.157 241.786C745.747 241.786 745.415 242.118 745.415 242.527C745.415 242.937 745.747 243.268 746.157 243.268Z" fill="#8643DC"/>
<path d="M742.45 246.974C742.86 246.974 743.192 246.643 743.192 246.233C743.192 245.824 742.86 245.492 742.45 245.492C742.041 245.492 741.709 245.824 741.709 246.233C741.709 246.643 742.041 246.974 742.45 246.974Z" fill="#8643DC"/>
<path d="M738.559 250.68C738.968 250.68 739.3 250.349 739.3 249.939C739.3 249.53 738.968 249.198 738.559 249.198C738.15 249.198 737.818 249.53 737.818 249.939C737.818 250.349 738.15 250.68 738.559 250.68Z" fill="#8643DC"/>
<path d="M734.668 254.387C735.077 254.387 735.409 254.055 735.409 253.646C735.409 253.236 735.077 252.904 734.668 252.904C734.258 252.904 733.927 253.236 733.927 253.646C733.927 254.055 734.258 254.387 734.668 254.387Z" fill="#8643DC"/>
<path d="M730.962 258.093C731.371 258.093 731.703 257.761 731.703 257.352C731.703 256.942 731.371 256.61 730.962 256.61C730.552 256.61 730.22 256.942 730.22 257.352C730.22 257.761 730.552 258.093 730.962 258.093Z" fill="#8643DC"/>
<path d="M727.07 261.799C727.48 261.799 727.812 261.467 727.812 261.058C727.812 260.648 727.48 260.316 727.07 260.316C726.661 260.316 726.329 260.648 726.329 261.058C726.329 261.467 726.661 261.799 727.07 261.799Z" fill="#8643DC"/>
<path d="M723.364 265.505C723.774 265.505 724.106 265.173 724.106 264.764C724.106 264.354 723.774 264.022 723.364 264.022C722.955 264.022 722.623 264.354 722.623 264.764C722.623 265.173 722.955 265.505 723.364 265.505Z" fill="#8643DC"/>
<path d="M719.473 269.211C719.882 269.211 720.214 268.879 720.214 268.47C720.214 268.06 719.882 267.729 719.473 267.729C719.064 267.729 718.732 268.06 718.732 268.47C718.732 268.879 719.064 269.211 719.473 269.211Z" fill="#8643DC"/>
<path d="M777.102 221.773C777.512 221.773 777.844 221.441 777.844 221.032C777.844 220.623 777.512 220.291 777.102 220.291C776.693 220.291 776.361 220.623 776.361 221.032C776.361 221.441 776.693 221.773 777.102 221.773Z" fill="#8643DC"/>
<path d="M773.396 225.479C773.805 225.479 774.137 225.147 774.137 224.738C774.137 224.329 773.805 223.997 773.396 223.997C772.987 223.997 772.655 224.329 772.655 224.738C772.655 225.147 772.987 225.479 773.396 225.479Z" fill="#8643DC"/>
<path d="M769.505 229.185C769.914 229.185 770.246 228.853 770.246 228.444C770.246 228.035 769.914 227.703 769.505 227.703C769.095 227.703 768.764 228.035 768.764 228.444C768.764 228.853 769.095 229.185 769.505 229.185Z" fill="#8643DC"/>
<path d="M765.799 232.891C766.208 232.891 766.54 232.559 766.54 232.15C766.54 231.741 766.208 231.409 765.799 231.409C765.389 231.409 765.057 231.741 765.057 232.15C765.057 232.559 765.389 232.891 765.799 232.891Z" fill="#8643DC"/>
<path d="M761.907 236.597C762.317 236.597 762.649 236.266 762.649 235.856C762.649 235.447 762.317 235.115 761.907 235.115C761.498 235.115 761.166 235.447 761.166 235.856C761.166 236.266 761.498 236.597 761.907 236.597Z" fill="#8643DC"/>
<path d="M758.201 240.303C758.611 240.303 758.942 239.972 758.942 239.562C758.942 239.153 758.611 238.821 758.201 238.821C757.792 238.821 757.46 239.153 757.46 239.562C757.46 239.972 757.792 240.303 758.201 240.303Z" fill="#8643DC"/>
<path d="M754.31 244.01C754.719 244.01 755.051 243.678 755.051 243.269C755.051 242.859 754.719 242.527 754.31 242.527C753.9 242.527 753.569 242.859 753.569 243.269C753.569 243.678 753.9 244.01 754.31 244.01Z" fill="#8643DC"/>
<path d="M750.604 247.716C751.013 247.716 751.345 247.384 751.345 246.975C751.345 246.565 751.013 246.233 750.604 246.233C750.194 246.233 749.863 246.565 749.863 246.975C749.863 247.384 750.194 247.716 750.604 247.716Z" fill="#8643DC"/>
<path d="M746.713 251.422C747.122 251.422 747.454 251.09 747.454 250.681C747.454 250.271 747.122 249.939 746.713 249.939C746.303 249.939 745.971 250.271 745.971 250.681C745.971 251.09 746.303 251.422 746.713 251.422Z" fill="#8643DC"/>
<path d="M743.006 255.128C743.416 255.128 743.748 254.796 743.748 254.387C743.748 253.977 743.416 253.646 743.006 253.646C742.597 253.646 742.265 253.977 742.265 254.387C742.265 254.796 742.597 255.128 743.006 255.128Z" fill="#8643DC"/>
<path d="M739.115 258.834C739.524 258.834 739.856 258.502 739.856 258.093C739.856 257.683 739.524 257.352 739.115 257.352C738.706 257.352 738.374 257.683 738.374 258.093C738.374 258.502 738.706 258.834 739.115 258.834Z" fill="#8643DC"/>
<path d="M735.409 262.54C735.818 262.54 736.15 262.208 736.15 261.799C736.15 261.389 735.818 261.058 735.409 261.058C735 261.058 734.668 261.389 734.668 261.799C734.668 262.208 735 262.54 735.409 262.54Z" fill="#8643DC"/>
<path d="M731.518 266.246C731.927 266.246 732.259 265.914 732.259 265.505C732.259 265.096 731.927 264.764 731.518 264.764C731.108 264.764 730.776 265.096 730.776 265.505C730.776 265.914 731.108 266.246 731.518 266.246Z" fill="#8643DC"/>
<path d="M727.811 269.952C728.221 269.952 728.553 269.62 728.553 269.211C728.553 268.802 728.221 268.47 727.811 268.47C727.402 268.47 727.07 268.802 727.07 269.211C727.07 269.62 727.402 269.952 727.811 269.952Z" fill="#8643DC"/>
<path d="M723.92 273.658C724.33 273.658 724.661 273.326 724.661 272.917C724.661 272.508 724.33 272.176 723.92 272.176C723.511 272.176 723.179 272.508 723.179 272.917C723.179 273.326 723.511 273.658 723.92 273.658Z" fill="#8643DC"/>
<path d="M781.549 226.22C781.959 226.22 782.291 225.889 782.291 225.479C782.291 225.07 781.959 224.738 781.549 224.738C781.14 224.738 780.808 225.07 780.808 225.479C780.808 225.889 781.14 226.22 781.549 226.22Z" fill="#8643DC"/>
<path d="M777.658 229.926C778.067 229.926 778.399 229.595 778.399 229.185C778.399 228.776 778.067 228.444 777.658 228.444C777.249 228.444 776.917 228.776 776.917 229.185C776.917 229.595 777.249 229.926 777.658 229.926Z" fill="#8643DC"/>
<path d="M773.952 233.633C774.361 233.633 774.693 233.301 774.693 232.891C774.693 232.482 774.361 232.15 773.952 232.15C773.543 232.15 773.211 232.482 773.211 232.891C773.211 233.301 773.543 233.633 773.952 233.633Z" fill="#8643DC"/>
<path d="M770.061 237.339C770.47 237.339 770.802 237.007 770.802 236.597C770.802 236.188 770.47 235.856 770.061 235.856C769.651 235.856 769.319 236.188 769.319 236.597C769.319 237.007 769.651 237.339 770.061 237.339Z" fill="#8643DC"/>
<path d="M766.355 241.045C766.764 241.045 767.096 240.713 767.096 240.303C767.096 239.894 766.764 239.562 766.355 239.562C765.945 239.562 765.613 239.894 765.613 240.303C765.613 240.713 765.945 241.045 766.355 241.045Z" fill="#8643DC"/>
<path d="M762.463 244.751C762.873 244.751 763.205 244.419 763.205 244.01C763.205 243.6 762.873 243.268 762.463 243.268C762.054 243.268 761.722 243.6 761.722 244.01C761.722 244.419 762.054 244.751 762.463 244.751Z" fill="#8643DC"/>
<path d="M758.757 248.457C759.167 248.457 759.498 248.125 759.498 247.716C759.498 247.306 759.167 246.975 758.757 246.975C758.348 246.975 758.016 247.306 758.016 247.716C758.016 248.125 758.348 248.457 758.757 248.457Z" fill="#8643DC"/>
<path d="M754.866 252.163C755.275 252.163 755.607 251.831 755.607 251.422C755.607 251.013 755.275 250.681 754.866 250.681C754.456 250.681 754.125 251.013 754.125 251.422C754.125 251.831 754.456 252.163 754.866 252.163Z" fill="#8643DC"/>
<path d="M751.16 255.869C751.569 255.869 751.901 255.537 751.901 255.128C751.901 254.719 751.569 254.387 751.16 254.387C750.75 254.387 750.419 254.719 750.419 255.128C750.419 255.537 750.75 255.869 751.16 255.869Z" fill="#8643DC"/>
<path d="M747.268 259.575C747.678 259.575 748.01 259.243 748.01 258.834C748.01 258.425 747.678 258.093 747.268 258.093C746.859 258.093 746.527 258.425 746.527 258.834C746.527 259.243 746.859 259.575 747.268 259.575Z" fill="#8643DC"/>
<path d="M743.562 263.281C743.972 263.281 744.303 262.949 744.303 262.54C744.303 262.131 743.972 261.799 743.562 261.799C743.153 261.799 742.821 262.131 742.821 262.54C742.821 262.949 743.153 263.281 743.562 263.281Z" fill="#8643DC"/>
<path d="M739.671 266.987C740.08 266.987 740.412 266.655 740.412 266.246C740.412 265.837 740.08 265.505 739.671 265.505C739.262 265.505 738.93 265.837 738.93 266.246C738.93 266.655 739.262 266.987 739.671 266.987Z" fill="#8643DC"/>
<path d="M735.965 270.693C736.374 270.693 736.706 270.362 736.706 269.952C736.706 269.543 736.374 269.211 735.965 269.211C735.555 269.211 735.224 269.543 735.224 269.952C735.224 270.362 735.555 270.693 735.965 270.693Z" fill="#8643DC"/>
<path d="M732.073 274.585C732.483 274.585 732.815 274.253 732.815 273.843C732.815 273.434 732.483 273.102 732.073 273.102C731.664 273.102 731.332 273.434 731.332 273.843C731.332 274.253 731.664 274.585 732.073 274.585Z" fill="#8643DC"/>
<path d="M728.367 278.291C728.777 278.291 729.109 277.959 729.109 277.55C729.109 277.14 728.777 276.808 728.367 276.808C727.958 276.808 727.626 277.14 727.626 277.55C727.626 277.959 727.958 278.291 728.367 278.291Z" fill="#8643DC"/>
<path d="M785.997 230.668C786.406 230.668 786.738 230.336 786.738 229.927C786.738 229.517 786.406 229.185 785.997 229.185C785.588 229.185 785.256 229.517 785.256 229.927C785.256 230.336 785.588 230.668 785.997 230.668Z" fill="#8643DC"/>
<path d="M782.106 234.374C782.515 234.374 782.847 234.042 782.847 233.633C782.847 233.223 782.515 232.891 782.106 232.891C781.696 232.891 781.364 233.223 781.364 233.633C781.364 234.042 781.696 234.374 782.106 234.374Z" fill="#8643DC"/>
<path d="M778.399 238.08C778.809 238.08 779.141 237.748 779.141 237.339C779.141 236.929 778.809 236.597 778.399 236.597C777.99 236.597 777.658 236.929 777.658 237.339C777.658 237.748 777.99 238.08 778.399 238.08Z" fill="#8643DC"/>
<path d="M774.508 241.786C774.917 241.786 775.249 241.454 775.249 241.045C775.249 240.635 774.917 240.303 774.508 240.303C774.099 240.303 773.767 240.635 773.767 241.045C773.767 241.454 774.099 241.786 774.508 241.786Z" fill="#8643DC"/>
<path d="M770.802 245.492C771.211 245.492 771.543 245.16 771.543 244.751C771.543 244.341 771.211 244.01 770.802 244.01C770.393 244.01 770.061 244.341 770.061 244.751C770.061 245.16 770.393 245.492 770.802 245.492Z" fill="#8643DC"/>
<path d="M766.911 249.198C767.32 249.198 767.652 248.866 767.652 248.457C767.652 248.047 767.32 247.716 766.911 247.716C766.501 247.716 766.169 248.047 766.169 248.457C766.169 248.866 766.501 249.198 766.911 249.198Z" fill="#8643DC"/>
<path d="M763.019 252.904C763.429 252.904 763.761 252.572 763.761 252.163C763.761 251.754 763.429 251.422 763.019 251.422C762.61 251.422 762.278 251.754 762.278 252.163C762.278 252.572 762.61 252.904 763.019 252.904Z" fill="#8643DC"/>
<path d="M759.313 256.61C759.723 256.61 760.054 256.278 760.054 255.869C760.054 255.46 759.723 255.128 759.313 255.128C758.904 255.128 758.572 255.46 758.572 255.869C758.572 256.278 758.904 256.61 759.313 256.61Z" fill="#8643DC"/>
<path d="M755.422 260.316C755.831 260.316 756.163 259.985 756.163 259.575C756.163 259.166 755.831 258.834 755.422 258.834C755.013 258.834 754.681 259.166 754.681 259.575C754.681 259.985 755.013 260.316 755.422 260.316Z" fill="#8643DC"/>
<path d="M751.716 264.022C752.125 264.022 752.457 263.691 752.457 263.281C752.457 262.872 752.125 262.54 751.716 262.54C751.306 262.54 750.975 262.872 750.975 263.281C750.975 263.691 751.306 264.022 751.716 264.022Z" fill="#8643DC"/>
<path d="M747.824 267.728C748.234 267.728 748.566 267.397 748.566 266.987C748.566 266.578 748.234 266.246 747.824 266.246C747.415 266.246 747.083 266.578 747.083 266.987C747.083 267.397 747.415 267.728 747.824 267.728Z" fill="#8643DC"/>
<path d="M744.118 271.62C744.528 271.62 744.859 271.288 744.859 270.879C744.859 270.469 744.528 270.137 744.118 270.137C743.709 270.137 743.377 270.469 743.377 270.879C743.377 271.288 743.709 271.62 744.118 271.62Z" fill="#8643DC"/>
<path d="M740.227 275.326C740.636 275.326 740.968 274.994 740.968 274.585C740.968 274.175 740.636 273.844 740.227 273.844C739.817 273.844 739.486 274.175 739.486 274.585C739.486 274.994 739.817 275.326 740.227 275.326Z" fill="#8643DC"/>
<path d="M736.521 279.032C736.93 279.032 737.262 278.7 737.262 278.291C737.262 277.881 736.93 277.55 736.521 277.55C736.111 277.55 735.78 277.881 735.78 278.291C735.78 278.7 736.111 279.032 736.521 279.032Z" fill="#8643DC"/>
<path d="M732.629 282.738C733.039 282.738 733.371 282.406 733.371 281.997C733.371 281.587 733.039 281.256 732.629 281.256C732.22 281.256 731.888 281.587 731.888 281.997C731.888 282.406 732.22 282.738 732.629 282.738Z" fill="#8643DC"/>
<path d="M790.259 235.115C790.668 235.115 791 234.783 791 234.374C791 233.964 790.668 233.633 790.259 233.633C789.849 233.633 789.518 233.964 789.518 234.374C789.518 234.783 789.849 235.115 790.259 235.115Z" fill="#8643DC"/>
<path d="M786.553 238.821C786.962 238.821 787.294 238.489 787.294 238.08C787.294 237.67 786.962 237.339 786.553 237.339C786.143 237.339 785.812 237.67 785.812 238.08C785.812 238.489 786.143 238.821 786.553 238.821Z" fill="#8643DC"/>
<path d="M782.661 242.527C783.071 242.527 783.403 242.195 783.403 241.786C783.403 241.377 783.071 241.045 782.661 241.045C782.252 241.045 781.92 241.377 781.92 241.786C781.92 242.195 782.252 242.527 782.661 242.527Z" fill="#8643DC"/>
<path d="M778.955 246.233C779.365 246.233 779.697 245.901 779.697 245.492C779.697 245.083 779.365 244.751 778.955 244.751C778.546 244.751 778.214 245.083 778.214 245.492C778.214 245.901 778.546 246.233 778.955 246.233Z" fill="#8643DC"/>
<path d="M775.064 249.939C775.473 249.939 775.805 249.607 775.805 249.198C775.805 248.789 775.473 248.457 775.064 248.457C774.655 248.457 774.323 248.789 774.323 249.198C774.323 249.607 774.655 249.939 775.064 249.939Z" fill="#8643DC"/>
<path d="M771.358 253.646C771.767 253.646 772.099 253.314 772.099 252.904C772.099 252.495 771.767 252.163 771.358 252.163C770.948 252.163 770.617 252.495 770.617 252.904C770.617 253.314 770.948 253.646 771.358 253.646Z" fill="#8643DC"/>
<path d="M767.467 257.352C767.876 257.352 768.208 257.02 768.208 256.61C768.208 256.201 767.876 255.869 767.467 255.869C767.057 255.869 766.725 256.201 766.725 256.61C766.725 257.02 767.057 257.352 767.467 257.352Z" fill="#8643DC"/>
<path d="M763.76 261.058C764.17 261.058 764.502 260.726 764.502 260.316C764.502 259.907 764.17 259.575 763.76 259.575C763.351 259.575 763.019 259.907 763.019 260.316C763.019 260.726 763.351 261.058 763.76 261.058Z" fill="#8643DC"/>
<path d="M759.869 264.764C760.278 264.764 760.61 264.432 760.61 264.022C760.61 263.613 760.278 263.281 759.869 263.281C759.46 263.281 759.128 263.613 759.128 264.022C759.128 264.432 759.46 264.764 759.869 264.764Z" fill="#8643DC"/>
<path d="M756.163 268.655C756.572 268.655 756.904 268.323 756.904 267.914C756.904 267.504 756.572 267.173 756.163 267.173C755.754 267.173 755.422 267.504 755.422 267.914C755.422 268.323 755.754 268.655 756.163 268.655Z" fill="#8643DC"/>
<path d="M752.271 272.361C752.681 272.361 753.013 272.029 753.013 271.62C753.013 271.211 752.681 270.879 752.271 270.879C751.862 270.879 751.53 271.211 751.53 271.62C751.53 272.029 751.862 272.361 752.271 272.361Z" fill="#8643DC"/>
<path d="M748.38 276.067C748.79 276.067 749.122 275.735 749.122 275.326C749.122 274.917 748.79 274.585 748.38 274.585C747.971 274.585 747.639 274.917 747.639 275.326C747.639 275.735 747.971 276.067 748.38 276.067Z" fill="#8643DC"/>
<path d="M744.674 279.773C745.084 279.773 745.415 279.441 745.415 279.032C745.415 278.623 745.084 278.291 744.674 278.291C744.265 278.291 743.933 278.623 743.933 279.032C743.933 279.441 744.265 279.773 744.674 279.773Z" fill="#8643DC"/>
<path d="M740.783 283.479C741.192 283.479 741.524 283.147 741.524 282.738C741.524 282.329 741.192 281.997 740.783 281.997C740.373 281.997 740.042 282.329 740.042 282.738C740.042 283.147 740.373 283.479 740.783 283.479Z" fill="#8643DC"/>
<path d="M737.077 287.185C737.486 287.185 737.818 286.853 737.818 286.444C737.818 286.035 737.486 285.703 737.077 285.703C736.667 285.703 736.335 286.035 736.335 286.444C736.335 286.853 736.667 287.185 737.077 287.185Z" fill="#8643DC"/>
<path d="M675 606.2L674.228 605.194L663 613.813L663.772 614.819L675 606.2Z" fill="#09E6DF"/>
<path d="M673.763 615.228L665.144 604L664.138 604.772L672.758 616L673.763 615.228Z" fill="#09E6DF"/>
<path d="M760 296.2L759.228 295.194L748 303.813L748.772 304.819L760 296.2Z" fill="#8643DC"/>
<path d="M758.763 305.228L750.144 294L749.138 294.772L757.758 306L758.763 305.228Z" fill="#8643DC"/>
<path d="M65.4158 160.416C67.3022 160.738 69.0931 159.471 69.4158 157.584C69.7384 155.698 68.4707 153.907 66.5843 153.584C64.6978 153.262 62.9069 154.529 62.5843 156.416C62.2616 158.302 63.5293 160.093 65.4158 160.416Z" fill="#FF59C1"/>
<path d="M167.416 731.416C169.302 731.738 171.093 730.471 171.416 728.584C171.738 726.698 170.471 724.907 168.584 724.584C166.698 724.262 164.907 725.529 164.584 727.416C164.262 729.302 165.529 731.093 167.416 731.416Z" fill="#8643DC"/>
<path d="M590.416 249.416C592.302 249.738 594.093 248.471 594.416 246.584C594.738 244.698 593.471 242.907 591.584 242.584C589.698 242.262 587.907 243.529 587.584 245.416C587.262 247.302 588.529 249.093 590.416 249.416Z" fill="#43DC77"/>
<path d="M459.416 7.41575C461.302 7.73842 463.093 6.47072 463.416 4.58425C463.738 2.69778 462.471 0.906923 460.584 0.584251C458.698 0.261578 456.907 1.52928 456.584 3.41575C456.262 5.30222 457.529 7.09308 459.416 7.41575Z" fill="#F57DC8"/>
</svg>
