<svg width="33" height="32" viewBox="0 0 33 32" fill="none" xmlns="http://www.w3.org/2000/svg">
<path d="M22.0416 8.76688C19.7388 8.63416 17.7687 10.0751 16.676 10.0751C15.5832 10.0751 13.8941 8.8341 12.0722 8.86857C9.65918 8.93062 7.45986 10.2664 6.29298 12.3796C3.80926 16.6524 5.64663 22.978 8.04761 26.4545C9.22311 28.1781 10.633 30.0655 12.4859 29.9983C14.2405 29.9328 14.9369 28.8555 17.0569 28.8555C19.1769 28.8555 19.806 29.9983 21.6606 29.9638C23.5807 29.931 24.7907 28.2402 25.9697 26.5166C26.8004 25.2963 27.4468 23.9605 27.8898 22.5523C25.6267 21.5629 24.1599 19.3343 24.1478 16.8644C24.1823 14.6857 25.3233 12.676 27.1779 11.5333C25.9955 9.85447 24.0978 8.82375 22.045 8.75136L22.0416 8.76688ZM20.6041 6.48655C19.5958 7.75684 18.0531 8.48593 16.4312 8.45663C16.3278 6.87436 16.8656 5.31794 17.9221 4.13555C18.9735 2.91523 20.4558 2.14995 22.0588 2C22.1726 3.62708 21.6503 5.23348 20.6006 6.48137" fill="#B5B4B6"/>
</svg>
