<svg width="32" height="32" viewBox="0 0 32 32" fill="none" xmlns="http://www.w3.org/2000/svg">
<path d="M3.657 30C3.21898 29.7813 3 29.2344 3 28.6876C3 28.5781 3 28.3594 3 28.25C3 20.1563 3 12.0625 3 4.07808C3 3.64057 3.10949 3.31249 3.21898 2.87498C3.32853 2.6562 3.54751 2.43747 3.76656 2.21875C8.4752 6.92186 13.0743 11.625 17.6735 16.3281C12.9649 20.7031 8.36571 25.2969 3.657 30Z" fill="#B5B4B6"/>
<path d="M22.2726 11.5156C20.9585 12.8282 19.535 14.1406 18.2209 15.5625C13.8408 11.0781 9.35112 6.59375 4.97095 2.10936C4.97095 2.10936 4.97095 2 5.08044 2C10.7747 5.17186 16.4689 8.34378 22.2726 11.5156Z" fill="#B5B4B6"/>
<path d="M4.97095 30C9.35112 25.625 13.8408 21.25 18.2209 16.875C19.4255 18.0781 20.7395 19.2813 22.1631 20.5937C16.4689 23.7657 10.7747 26.9375 5.08044 30H4.97095Z" fill="#B5B4B6"/>
<path d="M22.9299 20.1562C21.5064 18.8438 20.1924 17.5313 18.7688 16.2188C20.1924 14.7969 21.6159 13.375 23.0394 11.9531C23.4774 12.1718 23.9155 12.3906 24.3535 12.7187C25.4485 13.375 26.6531 13.9219 27.7481 14.5781C28.0767 14.6875 28.2956 14.9063 28.5146 15.2343C28.9526 15.7812 28.9526 16.3281 28.5146 16.875C28.2956 17.0937 28.0767 17.3125 27.7481 17.4219C26.2151 18.4063 24.5725 19.2813 22.9299 20.1562Z" fill="#B5B4B6"/>
</svg>
