<svg width="150" height="30" viewBox="0 0 150 30" fill="none" xmlns="http://www.w3.org/2000/svg">
<path fill-rule="evenodd" clip-rule="evenodd" d="M15 30C23.2843 30 30 23.2843 30 15C30 6.71573 23.2843 0 15 0C6.71573 0 0 6.71573 0 15C0 23.2843 6.71573 30 15 30Z" fill="#444A34"/>
<path fill-rule="evenodd" clip-rule="evenodd" d="M135 30C143.284 30 150 23.2843 150 15C150 6.71573 143.284 0 135 0C126.716 0 120 6.71573 120 15C120 23.2843 126.716 30 135 30Z" fill="#444A34"/>
<path fill-rule="evenodd" clip-rule="evenodd" d="M95 30C103.284 30 110 23.2843 110 15C110 6.71573 103.284 0 95 0C86.7157 0 80 6.71573 80 15C80 23.2843 86.7157 30 95 30Z" fill="#FFD723"/>
<path fill-rule="evenodd" clip-rule="evenodd" d="M55 30C63.2843 30 70 23.2843 70 15C70 6.71573 63.2843 0 55 0C46.7157 0 40 6.71573 40 15C40 23.2843 46.7157 30 55 30Z" fill="#444A34"/>
</svg>
